<svg width="300" height="300" viewBox="0 0 300 300" fill="none" xmlns="http://www.w3.org/2000/svg">
<path d="M239.4 60.516C238.74 58.962 238.02 57.432 237.228 55.926C214.656 12.774 119.184 -22.272 101.028 42.666C94.7295 65.0826 83.1665 85.67 67.3021 102.714C54.1741 116.73 38.1481 128.4 28.4101 144.888C18.6001 161.562 16.2001 182.298 21.2941 201C29.9521 232.638 58.1521 255.516 88.2541 268.542C133.896 288.294 189.186 289.188 231.798 263.544C260.388 246.336 282.708 215.262 280.998 181.944C279.42 151.41 258.93 125.412 249.798 96.228C246.102 84.366 244.2 71.856 239.4 60.516Z" fill="#5DCCFC"/>
<path opacity="0.7" d="M239.4 60.516C238.74 58.962 238.02 57.432 237.228 55.926C214.656 12.774 119.184 -22.272 101.028 42.666C94.7295 65.0826 83.1665 85.67 67.3021 102.714C54.1741 116.73 38.1481 128.4 28.4101 144.888C18.6001 161.562 16.2001 182.298 21.2941 201C29.9521 232.638 58.1521 255.516 88.2541 268.542C133.896 288.294 189.186 289.188 231.798 263.544C260.388 246.336 282.708 215.262 280.998 181.944C279.42 151.41 258.93 125.412 249.798 96.228C246.102 84.366 244.2 71.856 239.4 60.516Z" fill="white"/>
<path d="M219 166.074C219 183.642 212.021 200.49 199.599 212.913C187.176 225.335 170.328 232.314 152.76 232.314C135.192 232.314 118.344 225.335 105.921 212.913C93.4989 200.49 86.52 183.642 86.52 166.074C86.52 145.428 112.524 111.402 130.92 85.674C145.104 65.832 152.772 50.928 152.772 50.928C152.772 50.928 160.77 66.228 175.182 86.466C193.422 112.092 219 145.638 219 166.074Z" fill="#5DCCFC"/>
<path opacity="0.2" d="M152.76 50.934C152.76 50.934 151.152 54.06 148.05 59.334C147.312 65.148 148.05 75.894 154.254 95.502C166.296 133.578 170.184 177.102 149.982 192.63C132.714 205.914 107.79 209.826 91.6921 191.766C97.6283 205.858 108.256 217.463 121.774 224.612C135.291 231.761 150.865 234.014 165.854 230.989C180.843 227.964 194.325 219.847 204.011 208.016C213.698 196.184 218.994 181.365 219 166.074C219 145.638 193.422 112.074 175.17 86.472C160.758 66.234 152.76 50.934 152.76 50.934Z" fill="black"/>
<path opacity="0.5" d="M148.2 70.2C148.2 70.2 134.106 92.868 122.688 109.8C111.27 126.732 118.59 138.384 130.434 130.2C142.278 122.016 148.2 70.2 148.2 70.2Z" fill="white"/>
<path d="M138.288 91.752C138.288 91.752 129.48 105.924 122.34 116.514C115.2 127.104 119.778 134.4 127.2 129.276C134.622 124.152 138.288 91.752 138.288 91.752Z" fill="white"/>
<path d="M152.76 221.772C126.9 221.772 104.514 208.656 93.6179 189.54C98.442 201.259 106.639 211.28 117.168 218.332C127.697 225.384 140.084 229.149 152.757 229.149C165.43 229.149 177.817 225.384 188.346 218.332C198.875 211.28 207.072 201.259 211.896 189.54C201 208.656 178.614 221.772 152.76 221.772Z" fill="white"/>
<path d="M219 166.074C219 183.642 212.021 200.49 199.599 212.913C187.176 225.335 170.328 232.314 152.76 232.314C135.192 232.314 118.344 225.335 105.921 212.913C93.4989 200.49 86.52 183.642 86.52 166.074C86.52 145.428 112.524 111.402 130.92 85.674C145.104 65.832 152.772 50.928 152.772 50.928C152.772 50.928 160.77 66.228 175.182 86.466C193.422 112.092 219 145.638 219 166.074Z" stroke="#263238" stroke-miterlimit="10"/>
<path d="M152.76 229.11C161.827 229.12 170.792 227.195 179.055 223.462C187.318 219.73 194.689 214.277 200.676 207.468C199.016 206.878 197.281 206.528 195.522 206.43C191.586 206.274 183.402 207.69 176.16 209.43C168.918 211.17 164.04 212.106 164.04 212.106C164.04 212.106 162.78 214.152 156.96 215.106C151.14 216.06 147.672 213.534 142.158 215.58C137.958 217.152 132.978 221.58 129.186 224.634C136.69 227.606 144.689 229.125 152.76 229.11Z" fill="#263238" stroke="#263238" stroke-miterlimit="10"/>
<path d="M162.336 125.04C162.336 125.04 155.4 132.45 154.2 137.226C153 142.002 151.566 149.178 149.4 151.086C147.234 152.994 141.516 153.24 141.036 155.886C140.556 158.532 142.71 162.096 143.664 162.816C144.618 163.536 140.322 166.158 140.796 167.616C141.269 168.745 141.915 169.793 142.71 170.724C142.71 170.724 140.31 171.678 140.796 172.878C141.313 173.908 141.956 174.869 142.71 175.74C142.71 175.74 138.99 181.14 140.082 183.87C140.591 185.158 141.482 186.261 142.634 187.03C143.787 187.798 145.147 188.197 146.532 188.172C148.446 188.172 153.462 189.84 155.85 191.772C158.238 193.704 160.392 203.004 161.112 207.066C161.832 211.128 162.312 213.756 161.112 214.71C159.912 215.664 155.616 220.71 156.57 222.84C157.524 224.97 163.26 219.24 170.91 215.43C178.56 211.62 184.32 207.486 188.4 207C190.938 206.707 193.489 206.547 196.044 206.52C196.044 206.52 191.748 195.054 195.33 187.164C198.912 179.274 206.322 174.498 207.756 162.564C209.19 150.63 197.718 132.696 190.314 125.526C182.91 118.356 168.546 121.692 162.336 125.04Z" fill="white" stroke="#263238" stroke-miterlimit="10"/>
<path d="M162.096 144.876L159.708 149.652" stroke="#263238" stroke-miterlimit="10"/>
<path d="M165.912 151.32C164.374 151.174 162.857 150.85 161.394 150.354C159.708 149.652 158.394 149.154 158.394 149.154V149.586C159.144 150.552 159.684 150.444 159.684 150.444C159.684 150.444 156.564 149.586 157.854 150.444C159.144 151.302 160.326 151.308 162.264 151.644C164.202 151.98 166.662 152.286 165.912 151.32Z" fill="#263238"/>
<path d="M159.6 140.142C159.6 140.142 161.64 138.204 163.578 138.204C165.516 138.204 168.846 139.926 169.38 140.784C169.914 141.642 170.778 141.324 169.38 139.386C167.982 137.448 164.976 135.84 163.146 135.84C161.316 135.84 161.214 136.698 160.566 136.056C159.918 135.414 157.986 136.164 158.094 138.312C158.202 140.46 158.604 140.034 159.6 140.142Z" fill="#263238"/>
<path d="M144 160.992C145.059 161.702 146.062 162.492 147 163.356C147.642 164.112 148.29 164.112 149.472 163.248C150.654 162.384 151.404 160.458 150.222 159.168" stroke="#263238" stroke-miterlimit="10"/>
<path d="M163.2 153.144C163.2 153.144 166.422 154.008 168.144 155.616" stroke="#263238" stroke-miterlimit="10"/>
<path d="M167.634 154.116C167.634 154.116 169.89 154.758 170.532 155.724" stroke="#263238" stroke-miterlimit="10"/>
<path d="M159.6 154.542C159.6 154.542 162.072 153.576 164.112 154.866" stroke="#263238" stroke-miterlimit="10"/>
<path d="M184.2 171.312C184.2 171.312 183.918 174.312 186.96 174.27" stroke="#263238" stroke-miterlimit="10"/>
<path d="M175.566 184.8C174.132 185.592 173.004 186.15 173.004 186.15" stroke="#263238" stroke-miterlimit="10"/>
<path d="M184.614 177.33C183.279 179.096 181.727 180.687 179.994 182.064C179.214 182.664 178.23 183.264 177.252 183.834" stroke="#263238" stroke-miterlimit="10"/>
<path d="M166.11 202.068C166.314 201.162 166.518 200.202 166.71 199.194" stroke="#263238" stroke-miterlimit="10"/>
<path d="M159.948 217.452C159.948 217.452 162.63 215.22 165.264 205.452" stroke="#263238" stroke-miterlimit="10"/>
<path d="M215.604 176.79C216.307 172.97 216.66 169.094 216.66 165.21C216.66 151.884 205.386 132.81 192.66 114.174C190.044 113.64 177.84 111.474 168.06 115.722C157.068 120.522 150.852 127.668 151.566 129.342C152.28 131.016 161.604 126.234 168.294 125.28C174.984 124.326 176.184 124.326 176.184 124.326C176.184 124.326 165.906 130.296 166.626 131.73C167.346 133.164 172.836 135.078 175.944 136.272C179.052 137.466 184.548 138.42 184.548 138.42C184.548 138.42 174.75 141.048 175.944 142.962C177.138 144.876 185.502 143.442 185.502 143.442C185.502 143.442 181.2 148.698 180.96 153.48C180.72 158.262 185.022 153.48 185.022 153.48C184.294 155.133 184.128 156.979 184.548 158.736C184.881 160.286 185.53 161.751 186.456 163.038C187.623 161.438 188.988 159.993 190.518 158.736C192.918 156.822 200.076 157.062 199.842 163.992C199.608 170.922 193.626 173.79 190.284 174.03L186.936 174.27C186.936 174.27 186 179.286 187.2 182.4C188.4 185.514 191.262 183.834 191.262 183.834C191.262 183.834 190.542 190.044 193.41 190.044C196.278 190.044 194.844 186.936 202.014 183.834C207.222 181.566 212.184 180.69 215.604 176.79Z" fill="#263238" stroke="#263238" stroke-miterlimit="10"/>
<path d="M131.94 172.596C129.72 173.58 128.898 175.146 128.898 175.392C128.898 175.638 128.238 172.992 128.238 168.894C128.238 164.796 128.07 159.672 128.646 157.122C129.222 154.572 129.474 149.634 129.06 147.576C128.829 146.489 128.665 145.389 128.568 144.282L120 146.508C120 146.508 115.704 141.384 114.768 141.642C114.597 142.486 114.503 143.343 114.486 144.204C114.486 145.404 113.826 150.54 113.826 150.54C113.502 149.796 112.026 147.168 110.784 146.178C109.542 145.188 106.752 144.378 105.108 146.094C105.108 146.094 104.448 148.152 104.856 149.22C105.046 149.803 105.161 150.408 105.198 151.02C102.912 151.182 100.932 151.392 100.398 151.62C98.9939 152.28 100.398 154.668 99.4919 157.134C98.5859 159.6 97.6919 174.996 97.6919 175.65C97.6919 176.304 97.9379 184.458 97.9379 184.458L94.6799 191.928C98.2235 199.616 103.257 206.526 109.488 212.256L116.124 190.878C116.124 190.878 124.194 186.924 126.084 186.078C127.649 185.435 129.331 185.127 131.022 185.172C132.258 185.172 133.422 182.46 134.478 180.072C135.534 177.684 137.28 174.72 137.856 173.568C138.432 172.416 134.16 171.6 131.94 172.596Z" fill="white" stroke="#263238" stroke-miterlimit="10"/>
<path d="M128.898 175.392C128.898 175.392 126.408 177.87 126.408 180.228" stroke="#263238" stroke-miterlimit="10"/>
<path d="M115.656 176.838C115.656 176.838 110.946 178.458 108.588 182.874" stroke="#263238" stroke-miterlimit="10"/>
<path d="M109.47 179.934C109.47 179.934 107.85 182.142 107.706 183.906" stroke="#263238" stroke-miterlimit="10"/>
<path d="M106.38 181.554L106.23 183.468" stroke="#263238" stroke-miterlimit="10"/>
<path d="M106.524 186.264C107.509 187.853 108.876 189.169 110.502 190.092C112.24 190.974 114.224 191.246 116.136 190.866" stroke="#263238" stroke-miterlimit="10"/>
<path d="M142.62 156.69C140.784 149.022 137.142 143.316 134.496 143.946L101.934 152.4C99.6119 152.952 98.934 158.544 100.476 164.88C102.018 171.216 105.108 175.902 107.436 175.35L140.742 171.75C140.879 171.749 141.016 171.733 141.15 171.702C143.796 171.096 144.456 164.364 142.62 156.69Z" stroke="#263238" stroke-miterlimit="10"/>
<path d="M139.74 171.534C137.34 170.394 134.55 165.372 133.026 158.988C131.646 153.234 131.67 148.008 132.888 145.488" stroke="#263238" stroke-miterlimit="10"/>
<path opacity="0.63" d="M132.888 166.38C127.734 163.44 118.752 153.57 113.742 152.688C110.523 152.179 107.249 152.129 104.016 152.538C103.915 152.544 103.815 152.556 103.716 152.574C101.394 153.132 100.686 158.502 102.138 164.574C103.59 170.646 106.65 175.098 108.978 174.54L138.63 171.102C138.63 171.102 140.4 171.396 140.694 170.07C140.988 168.744 138.042 169.326 132.888 166.38Z" fill="white"/>
<path d="M132.888 166.38C127.734 163.44 118.752 153.57 113.742 152.688C110.523 152.179 107.249 152.129 104.016 152.538C103.915 152.544 103.815 152.556 103.716 152.574C101.394 153.132 100.686 158.502 102.138 164.574C103.59 170.646 106.65 175.098 108.978 174.54L138.63 171.102C138.63 171.102 140.4 171.396 140.694 170.07C140.988 168.744 138.042 169.326 132.888 166.38Z" stroke="#5DCCFC" stroke-miterlimit="10"/>
<path d="M104.4 150.048C104.4 150.048 102 150.048 100.614 151.2C99.2278 152.352 100.944 153.75 101.604 153.75C103.329 153.437 104.977 152.793 106.458 151.854C107.58 150.948 105.114 150.21 104.4 150.048Z" fill="white" stroke="#263238" stroke-miterlimit="10"/>
<path d="M126.6 137.784C126.6 137.784 123.204 137.982 122.322 139.746C121.44 141.51 123.48 143.58 124.47 145.05C125.46 146.52 126.924 146.964 128.67 145.932C130.416 144.9 130.572 142.986 129.996 141.366C129.42 139.746 128.616 137.928 126.6 137.784Z" fill="white" stroke="#263238" stroke-miterlimit="10"/>
<path d="M129.288 141.156C129.288 141.156 126.756 141.486 125.634 142.392C124.512 143.298 125.634 144.192 125.898 144.612C126.162 145.032 128.982 144.012 129.498 143.628C130.014 143.244 129.774 141.24 129.288 141.156Z" fill="white" stroke="#263238" stroke-miterlimit="10"/>
<path d="M119.184 139.674C119.184 139.674 115.362 139.872 114.774 141.642C114.186 143.412 116.982 145.47 118.458 146.94C119.934 148.41 121.698 148.86 123.462 147.828C125.226 146.796 124.938 144.882 123.906 143.262C122.874 141.642 121.542 139.8 119.184 139.674Z" fill="white" stroke="#263238" stroke-miterlimit="10"/>
<path d="M123.054 143.052C123.054 143.052 120.252 143.382 119.184 144.282C118.116 145.182 119.598 146.082 120.006 146.508C120.414 146.934 123.384 145.908 123.876 145.518C124.368 145.128 123.63 143.13 123.054 143.052Z" fill="white" stroke="#263238" stroke-miterlimit="10"/>
<path d="M109.47 143.544C109.47 143.544 105.654 143.742 105.06 145.512C104.466 147.282 107.274 149.34 108.744 150.81C110.214 152.28 111.984 152.724 113.754 151.692C115.524 150.66 115.224 148.752 114.192 147.132C113.16 145.512 111.828 143.694 109.47 143.544Z" fill="white" stroke="#263238" stroke-miterlimit="10"/>
<path d="M113.34 146.916C113.34 146.916 110.544 147.246 109.47 148.152C108.396 149.058 109.884 149.952 110.298 150.372C110.712 150.792 113.67 149.772 114.162 149.388C114.654 149.004 113.916 147 113.34 146.916Z" fill="white" stroke="#263238" stroke-miterlimit="10"/>
</svg>
