<svg width="300" height="300" viewBox="0 0 300 300" fill="none" xmlns="http://www.w3.org/2000/svg">
<path d="M51.858 161.4C50.91 139.674 76.884 119.856 102.294 111.834C130.41 102.954 138.402 92.262 158.13 77.082C209.13 37.86 274.92 72.828 270.636 121.098C268.758 142.2 261 167.682 246.24 185.568C225.294 210.984 207.678 201.768 171.096 197.376C145.104 194.262 126.198 205.938 101.196 204.09C69.312 201.738 52.8 182.454 51.858 161.4Z" fill="#5DCCFC"/>
<path opacity="0.9" d="M51.858 161.4C50.91 139.674 76.884 119.856 102.294 111.834C130.41 102.954 138.402 92.262 158.13 77.082C209.13 37.86 274.92 72.828 270.636 121.098C268.758 142.2 261 167.682 246.24 185.568C225.294 210.984 207.678 201.768 171.096 197.376C145.104 194.262 126.198 205.938 101.196 204.09C69.312 201.738 52.8 182.454 51.858 161.4Z" fill="white"/>
<path d="M150 256.536C214.249 256.536 266.334 253.495 266.334 249.744C266.334 245.993 214.249 242.952 150 242.952C85.7505 242.952 33.666 245.993 33.666 249.744C33.666 253.495 85.7505 256.536 150 256.536Z" fill="#F5F5F5"/>
<path opacity="0.1" d="M82.38 202.326C82.4534 201.786 82.7304 201.295 83.1542 200.952C83.5781 200.61 84.1168 200.442 84.66 200.484C89.796 200.412 94.602 204.036 99.06 207.93C100.05 208.788 101.124 209.682 102.234 208.776C102.577 208.492 102.828 208.112 102.954 207.684C103.146 206.985 103.146 206.247 102.954 205.548C102.79 204.972 102.515 204.434 102.144 203.964C100.206 201.414 97.848 200.184 95.934 197.55C94.8619 196.043 93.9736 194.414 93.288 192.696C92.688 191.178 91.488 188.736 91.968 186.696C92.502 184.242 94.332 184.458 95.442 184.788C98.952 185.838 102.228 188.34 105.204 191.454C108.378 194.766 111.252 198.756 114.114 202.728C115.194 204.228 116.334 205.782 117.714 206.328C119.094 206.874 120.84 205.986 121.422 203.814C122.004 201.642 121.32 199.146 121.176 196.986C120.984 194.408 121.109 191.817 121.548 189.27C121.743 187.925 122.197 186.631 122.886 185.46C124.434 183.186 126.726 183.984 128.226 185.7C129.37 187.136 130.255 188.76 130.842 190.5C132.474 194.856 133.428 200.148 133.842 205.416C134.07 208.56 134.55 211.842 135.846 214.29C137.94 218.238 141.846 217.92 144.876 215.85C150.15 212.25 154.218 204.114 155.304 195.018C155.658 192.054 155.748 188.856 156.828 186.366C157.77 184.218 160.188 182.766 161.37 185.082C161.846 186.24 161.979 187.51 161.754 188.742C161.543 189.962 161.244 191.165 160.86 192.342C160.26 194.382 159.66 198.21 161.28 199.398C161.522 199.545 161.792 199.637 162.073 199.668C162.354 199.699 162.638 199.668 162.906 199.578C168.21 198.48 173.142 193.482 176.382 186.516C177.557 183.895 178.454 181.158 179.058 178.35C179.448 176.64 179.61 174.792 180.042 173.088C180.322 171.748 180.882 170.482 181.686 169.374C183.75 166.902 188.514 168.066 188.784 173.364C188.934 176.4 188.118 179.4 187.8 182.4C187.614 184.278 188.772 184.26 189.636 184.2C193.776 183.78 197.436 179.604 200.682 175.26C204.54 170.094 208.812 163.386 214.08 163.194C215.28 163.146 217.278 163.302 217.998 165.156C218.332 166.292 218.332 167.5 217.998 168.636C216.93 173.064 213.798 175.356 211.398 177.54C204.633 183.89 198.681 191.055 193.68 198.87C192.918 200.07 192.132 202.044 192.858 203.226C193.002 203.444 193.206 203.614 193.447 203.716C193.687 203.817 193.952 203.845 194.208 203.796C196.686 203.61 199.008 201.636 201.27 200.004C203.532 198.372 206.1 196.944 208.47 198.204C209.201 198.641 209.837 199.219 210.343 199.904C210.848 200.589 211.213 201.367 211.416 202.194C211.839 203.645 211.907 205.176 211.614 206.658C210.744 210.732 206.982 212.568 204.912 214.572C202.062 217.322 199.452 220.311 197.112 223.506C194.952 226.464 192.912 229.704 190.752 232.614C182.952 243.006 172.152 244.548 162.552 245.754C152.106 247.062 141.636 246.354 131.25 244.986C123.696 243.978 116.25 241.824 108.876 239.274C106.344 238.356 103.83 237.354 101.346 236.166C98.676 234.894 94.746 234.108 93.72 229.104C93.504 228.024 93.756 227.148 94.47 226.74C96.684 225.486 99.84 227.166 101.922 228.276C104.796 229.812 107.52 232.002 110.472 233.19C110.947 233.421 111.464 233.553 111.992 233.58C112.52 233.607 113.048 233.527 113.544 233.346C114.029 233.142 114.43 232.778 114.678 232.314C114.992 231.703 115.069 230.998 114.894 230.334C114.771 229.977 114.565 229.654 114.294 229.392C109.005 223.935 102.682 219.586 95.694 216.6C93.444 215.634 91.146 214.842 88.98 213.474C87.2293 212.391 85.7183 210.962 84.54 209.274C83.49 207.75 81.87 204.9 82.38 202.326Z" fill="#5DCCFC"/>
<path opacity="0.1" d="M197.142 158.22C196.741 158.635 196.216 158.909 195.646 158.999C195.075 159.09 194.491 158.992 193.982 158.721C193.472 158.45 193.064 158.02 192.82 157.496C192.577 156.973 192.51 156.385 192.63 155.82C194.7 145.8 199.2 138.468 204.552 142.254C208.548 145.08 202.284 152.88 197.142 158.22Z" fill="#5DCCFC"/>
<path opacity="0.1" d="M98.274 152.346C92.736 148.05 88.866 142.146 92.814 140.64C96.546 139.2 98.274 152.346 98.274 152.346Z" fill="#5DCCFC"/>
<path opacity="0.3" d="M182.622 162.912C184.259 162.009 185.647 160.714 186.661 159.143C187.676 157.573 188.285 155.776 188.436 153.912L192.492 104.502C192.702 101.962 192.379 99.4063 191.543 96.9987C190.707 94.5911 189.377 92.385 187.638 90.522L175.14 77.136C174.452 76.3962 173.925 75.5213 173.593 74.5668C173.262 73.6123 173.133 72.5992 173.214 71.592L173.814 64.356L141.468 61.704L140.868 68.904C140.786 69.9118 140.495 70.8914 140.012 71.7799C139.529 72.6685 138.867 73.4465 138.066 74.064L123.546 85.242C121.527 86.796 119.856 88.7548 118.638 90.9929C117.421 93.231 116.685 95.6988 116.478 98.238L112.416 147.648C112.262 149.509 112.572 151.379 113.316 153.092C114.06 154.805 115.217 156.307 116.682 157.464C115.045 158.367 113.658 159.662 112.644 161.232C111.631 162.803 111.023 164.601 110.874 166.464L105.696 229.464C105.574 230.947 105.745 232.44 106.2 233.858C106.655 235.275 107.384 236.589 108.347 237.724C109.31 238.859 110.487 239.793 111.811 240.473C113.135 241.153 114.581 241.565 116.064 241.686L169.464 246.078C170.947 246.2 172.44 246.029 173.858 245.574C175.275 245.119 176.589 244.39 177.724 243.427C178.859 242.464 179.793 241.287 180.473 239.963C181.153 238.639 181.565 237.194 181.686 235.71L186.864 172.71C187.017 170.854 186.71 168.989 185.971 167.28C185.231 165.57 184.08 164.07 182.622 162.912Z" fill="#5DCCFC"/>
<path opacity="0.3" d="M141.474 61.7105L141.016 67.2897L173.355 69.9484L173.813 64.3693L141.474 61.7105Z" fill="#5DCCFC"/>
<path opacity="0.3" d="M187.338 91.8L174.84 78.414C174.84 78.414 166.782 78.768 173.04 88.644C178.374 97.002 187.668 95.7 187.338 91.8Z" fill="white"/>
<path opacity="0.2" d="M105.702 229.47C105.58 230.953 105.751 232.446 106.206 233.864C106.66 235.281 107.39 236.595 108.353 237.73C109.316 238.865 110.493 239.799 111.817 240.479C113.141 241.159 114.586 241.571 116.07 241.692L169.47 246.084C172.466 246.33 175.436 245.375 177.728 243.431C180.02 241.487 181.446 238.711 181.692 235.716L105.702 229.47Z" fill="#5DCCFC"/>
<path opacity="0.3" d="M185.004 93C186.4 94.4978 187.468 96.2704 188.139 98.2045C188.811 100.139 189.071 102.192 188.904 104.232L184.848 153.642C184.742 154.912 184.325 156.137 183.632 157.207C182.939 158.276 181.992 159.158 180.876 159.774L176.154 162.39L180.384 165.744C181.385 166.534 182.175 167.56 182.684 168.729C183.192 169.898 183.404 171.175 183.3 172.446L178.122 235.446C177.946 237.482 176.973 239.365 175.414 240.686C173.855 242.007 171.837 242.657 169.8 242.496L116.4 238.104C114.357 237.933 112.466 236.959 111.14 235.396C109.814 233.832 109.162 231.807 109.326 229.764L114.504 166.764C114.607 165.494 115.024 164.269 115.716 163.199C116.408 162.129 117.354 161.247 118.47 160.632L123.192 158.01L118.992 154.662C117.991 153.872 117.201 152.847 116.692 151.677C116.184 150.508 115.972 149.231 116.076 147.96L120.138 98.55C120.306 96.5102 120.899 94.5281 121.877 92.7304C122.856 90.9327 124.199 89.359 125.82 88.11C130.62 85.008 143.22 92.73 157.974 93.942C172.728 95.154 181.92 91.416 185.004 93Z" fill="#5DCCFC"/>
<path opacity="0.2" d="M157.908 93.96C143.16 92.76 130.548 85.014 125.748 88.122C134.148 92.742 143.748 95.598 157.674 96.744C171.6 97.89 185.004 93 185.004 93C181.92 91.416 172.656 95.172 157.908 93.96Z" fill="#5DCCFC"/>
<path opacity="0.2" d="M112.422 147.678C112.268 149.539 112.577 151.409 113.322 153.122C114.066 154.835 115.222 156.337 116.688 157.494L182.622 162.894C184.259 161.991 185.646 160.696 186.661 159.125C187.675 157.555 188.285 155.758 188.436 153.894L112.422 147.678Z" fill="#5DCCFC"/>
<path d="M178.44 63.078L177.84 63.03L178.23 58.272C178.273 57.753 178.213 57.2308 178.053 56.735C177.894 56.2393 177.638 55.7799 177.301 55.3831C176.964 54.9863 176.552 54.6599 176.088 54.4226C175.625 54.1852 175.119 54.0416 174.6 54L169.428 53.574L169.476 52.974L174.648 53.394C175.851 53.4964 176.964 54.0708 177.744 54.9917C178.524 55.9125 178.908 57.1049 178.812 58.308L178.44 63.078Z" fill="#5DCCFC"/>
<path d="M176.808 69.06L176.394 68.628C177.085 67.963 177.512 67.0697 177.594 66.114L178.194 66.168C178.098 67.2682 177.605 68.296 176.808 69.06Z" fill="#5DCCFC"/>
<path d="M174.491 55.5072L142.242 52.8558C140.891 52.7447 139.706 53.7497 139.595 55.1005L138.95 62.946C138.839 64.2968 139.844 65.4818 141.195 65.5928L173.444 68.2442C174.795 68.3552 175.98 67.3503 176.091 65.9995L176.736 58.154C176.847 56.8032 175.842 55.6182 174.491 55.5072Z" fill="#5DCCFC"/>
<path opacity="0.2" d="M142.836 64.386C142.797 64.383 142.758 64.3722 142.723 64.3542C142.688 64.3363 142.656 64.3115 142.631 64.2814C142.605 64.2513 142.586 64.2164 142.573 64.1788C142.561 64.1411 142.557 64.1014 142.56 64.062L143.316 54.6C143.324 54.521 143.362 54.448 143.422 54.3965C143.483 54.3449 143.561 54.319 143.64 54.324C143.68 54.327 143.718 54.3378 143.753 54.3558C143.789 54.3737 143.82 54.3985 143.846 54.4286C143.871 54.4587 143.891 54.4936 143.903 54.5313C143.915 54.5689 143.919 54.6086 143.916 54.648L143.136 64.134C143.126 64.2055 143.09 64.2708 143.034 64.3173C142.979 64.3638 142.908 64.3882 142.836 64.386Z" fill="white"/>
<path opacity="0.2" d="M148.686 64.866C148.647 64.863 148.608 64.8522 148.573 64.8342C148.538 64.8163 148.506 64.7915 148.481 64.7614C148.455 64.7313 148.435 64.6964 148.423 64.6588C148.411 64.6211 148.407 64.5814 148.41 64.542L149.19 55.056C149.198 54.9769 149.236 54.904 149.296 54.8524C149.357 54.8009 149.435 54.775 149.514 54.78C149.593 54.7876 149.665 54.8259 149.716 54.8865C149.766 54.9472 149.791 55.0253 149.784 55.104L149.01 64.59C149.007 64.6294 148.996 64.6679 148.978 64.7031C148.96 64.7384 148.936 64.7698 148.905 64.7954C148.875 64.8211 148.84 64.8405 148.803 64.8526C148.765 64.8647 148.725 64.8693 148.686 64.866Z" fill="white"/>
<path opacity="0.2" d="M154.53 65.346C154.491 65.343 154.452 65.3322 154.417 65.3142C154.382 65.2963 154.35 65.2715 154.325 65.2414C154.299 65.2113 154.279 65.1764 154.267 65.1388C154.255 65.1011 154.251 65.0614 154.254 65.022L155.034 55.536C155.043 55.4575 155.081 55.3854 155.142 55.3342C155.202 55.2829 155.279 55.2564 155.358 55.26C155.437 55.2676 155.51 55.3057 155.562 55.3661C155.613 55.4266 155.639 55.5047 155.634 55.584L154.854 65.076C154.851 65.1152 154.84 65.1534 154.822 65.1884C154.804 65.2233 154.779 65.2543 154.749 65.2795C154.719 65.3046 154.684 65.3235 154.646 65.3349C154.609 65.3464 154.569 65.3501 154.53 65.346Z" fill="white"/>
<path opacity="0.2" d="M160.38 65.832C160.341 65.829 160.302 65.8182 160.267 65.8002C160.232 65.7823 160.2 65.7575 160.175 65.7274C160.149 65.6973 160.13 65.6624 160.117 65.6248C160.105 65.5871 160.101 65.5474 160.104 65.508L160.884 56.022C160.893 55.9435 160.932 55.8714 160.992 55.8202C161.052 55.769 161.129 55.7425 161.208 55.746C161.287 55.7536 161.359 55.7919 161.41 55.8526C161.46 55.9132 161.485 55.9913 161.478 56.07L160.698 65.562C160.69 65.6395 160.653 65.7109 160.594 65.7613C160.534 65.8117 160.458 65.8371 160.38 65.832Z" fill="white"/>
<path opacity="0.2" d="M166.2 66.312C166.121 66.3059 166.048 66.2691 165.997 66.2096C165.945 66.1501 165.919 66.0726 165.924 65.994L166.704 56.502C166.716 56.4246 166.755 56.3541 166.814 56.3033C166.874 56.2526 166.95 56.2251 167.028 56.226C167.107 56.2336 167.18 56.2717 167.231 56.3322C167.283 56.3926 167.309 56.4707 167.304 56.55L166.524 66.042C166.516 66.1206 166.478 66.193 166.417 66.2435C166.357 66.2941 166.279 66.3187 166.2 66.312Z" fill="white"/>
<path opacity="0.2" d="M172.074 66.792C171.995 66.7844 171.922 66.7463 171.87 66.6859C171.819 66.6254 171.793 66.5473 171.798 66.468L172.554 57C172.557 56.9608 172.568 56.9226 172.586 56.8876C172.604 56.8527 172.629 56.8217 172.659 56.7965C172.689 56.7714 172.724 56.7525 172.762 56.7411C172.799 56.7297 172.839 56.7259 172.878 56.73C172.917 56.733 172.954 56.7437 172.989 56.7613C173.023 56.779 173.054 56.8033 173.079 56.8328C173.104 56.8624 173.123 56.8966 173.135 56.9335C173.147 56.9705 173.151 57.0094 173.148 57.048L172.374 66.54C172.36 66.61 172.323 66.6731 172.268 66.719C172.214 66.7648 172.145 66.7906 172.074 66.792Z" fill="white"/>
<path opacity="0.2" d="M122.4 131.178C121.488 126.132 114.138 126.486 113.718 131.598L112.398 147.678C112.244 149.539 112.554 151.409 113.298 153.122C114.042 154.835 115.199 156.337 116.664 157.494C115.027 158.397 113.64 159.692 112.626 161.262C111.613 162.833 111.004 164.631 110.856 166.494L105.678 229.494C105.556 230.977 105.727 232.47 106.182 233.888C106.637 235.305 107.366 236.619 108.329 237.754C109.292 238.889 110.469 239.823 111.793 240.503C113.117 241.183 114.562 241.595 116.046 241.716L129.846 242.85C131.366 242.974 132.895 242.748 134.314 242.188C135.733 241.627 137.004 240.749 138.029 239.619C139.054 238.489 139.806 237.139 140.227 235.673C140.647 234.207 140.725 232.663 140.454 231.162L122.4 131.178Z" fill="#5DCCFC"/>
<path opacity="0.3" d="M173.443 217.676C175.914 215.58 176.219 211.877 174.123 209.405C172.026 206.933 168.323 206.629 165.852 208.725C163.38 210.821 163.076 214.524 165.172 216.996C167.268 219.467 170.971 219.772 173.443 217.676Z" fill="#5DCCFC"/>
<path opacity="0.3" d="M156.846 190.944C156.779 191.763 156.471 192.543 155.961 193.186C155.45 193.83 154.761 194.307 153.979 194.559C153.197 194.81 152.358 194.824 151.568 194.599C150.779 194.373 150.073 193.919 149.542 193.292C149.011 192.666 148.677 191.896 148.583 191.08C148.489 190.265 148.639 189.439 149.015 188.709C149.39 187.978 149.974 187.375 150.692 186.976C151.41 186.578 152.23 186.401 153.048 186.468C153.592 186.512 154.121 186.663 154.606 186.911C155.092 187.16 155.523 187.502 155.876 187.918C156.228 188.334 156.496 188.815 156.662 189.334C156.829 189.854 156.891 190.401 156.846 190.944Z" fill="#5DCCFC"/>
<path opacity="0.3" d="M139.488 140.4C138.666 140.439 137.852 140.234 137.147 139.811C136.442 139.387 135.878 138.764 135.528 138.02C135.177 137.276 135.055 136.445 135.176 135.631C135.298 134.818 135.659 134.059 136.212 133.45C136.765 132.841 137.486 132.411 138.284 132.212C139.083 132.013 139.922 132.056 140.696 132.334C141.47 132.612 142.144 133.114 142.632 133.775C143.121 134.437 143.403 135.228 143.442 136.05C143.493 137.151 143.105 138.227 142.364 139.042C141.623 139.857 140.588 140.346 139.488 140.4Z" fill="#5DCCFC"/>
<path opacity="0.3" d="M150.81 115.554C150.229 115.583 149.653 115.439 149.153 115.14C148.654 114.842 148.255 114.401 148.006 113.876C147.757 113.35 147.67 112.762 147.755 112.187C147.84 111.611 148.094 111.074 148.485 110.643C148.876 110.212 149.385 109.907 149.95 109.766C150.514 109.624 151.108 109.654 151.655 109.85C152.203 110.046 152.68 110.4 153.026 110.868C153.372 111.335 153.572 111.895 153.6 112.476C153.636 113.254 153.363 114.014 152.84 114.59C152.317 115.167 151.587 115.514 150.81 115.554Z" fill="#5DCCFC"/>
<path opacity="0.3" d="M169.026 172.998C168.998 173.336 168.87 173.658 168.659 173.923C168.447 174.189 168.162 174.385 167.839 174.489C167.516 174.592 167.17 174.597 166.844 174.504C166.518 174.411 166.227 174.223 166.007 173.964C165.788 173.706 165.65 173.388 165.611 173.051C165.573 172.714 165.634 172.373 165.789 172.071C165.944 171.769 166.185 171.52 166.481 171.355C166.777 171.19 167.116 171.117 167.454 171.144C167.908 171.182 168.328 171.399 168.623 171.746C168.918 172.094 169.063 172.544 169.026 172.998Z" fill="#5DCCFC"/>
<path opacity="0.7" d="M137.946 219.942H137.658C137.198 219.91 136.75 219.788 136.338 219.582C135.926 219.376 135.559 219.091 135.258 218.742C134.962 218.395 134.738 217.992 134.599 217.557C134.46 217.123 134.408 216.665 134.448 216.21C134.504 215.538 134.754 214.896 135.169 214.364C135.583 213.832 136.143 213.432 136.781 213.212C137.419 212.993 138.107 212.965 138.761 213.13C139.415 213.295 140.007 213.647 140.464 214.143C140.921 214.639 141.224 215.258 141.336 215.923C141.448 216.588 141.363 217.272 141.093 217.89C140.823 218.508 140.379 219.034 139.814 219.404C139.25 219.773 138.591 219.971 137.916 219.972L137.946 219.942ZM137.946 213.438C137.364 213.427 136.791 213.586 136.297 213.895C135.804 214.204 135.411 214.65 135.167 215.179C134.922 215.708 134.837 216.296 134.922 216.872C135.006 217.448 135.256 217.988 135.642 218.424C135.898 218.727 136.212 218.977 136.565 219.158C136.918 219.34 137.304 219.449 137.7 219.48C138.5 219.546 139.293 219.292 139.905 218.773C140.517 218.254 140.898 217.514 140.964 216.714C141.03 215.914 140.776 215.121 140.257 214.509C139.738 213.897 138.998 213.516 138.198 213.45L137.946 213.438Z" fill="white"/>
<path opacity="0.7" d="M175.056 149.73H174.846C174.18 149.675 173.562 149.358 173.129 148.848C172.696 148.339 172.483 147.679 172.536 147.012C172.576 146.523 172.757 146.056 173.058 145.668C173.359 145.28 173.766 144.988 174.23 144.828C174.694 144.668 175.194 144.647 175.67 144.766C176.146 144.886 176.577 145.142 176.91 145.503C177.243 145.863 177.463 146.313 177.545 146.797C177.626 147.281 177.565 147.778 177.368 148.228C177.172 148.678 176.848 149.06 176.438 149.329C176.027 149.598 175.547 149.742 175.056 149.742V149.73ZM172.986 147.036C172.957 147.377 173.012 147.719 173.147 148.033C173.283 148.348 173.493 148.623 173.761 148.837C174.028 149.05 174.344 149.193 174.68 149.255C175.017 149.317 175.363 149.294 175.688 149.19C176.014 149.086 176.309 148.902 176.547 148.657C176.784 148.411 176.958 148.11 177.051 147.781C177.145 147.452 177.156 147.105 177.083 146.771C177.01 146.437 176.856 146.126 176.634 145.866C176.457 145.654 176.238 145.48 175.992 145.355C175.745 145.231 175.476 145.157 175.2 145.14C174.929 145.117 174.655 145.148 174.395 145.231C174.136 145.314 173.895 145.447 173.687 145.623C173.479 145.799 173.308 146.015 173.184 146.257C173.059 146.5 172.984 146.764 172.962 147.036H172.986Z" fill="white"/>
<path opacity="0.7" d="M136.29 96.534H136.2C135.891 96.5035 135.606 96.3547 135.405 96.1186C135.204 95.8826 135.102 95.5777 135.12 95.268C135.134 95.0343 135.216 94.8097 135.356 94.6221C135.496 94.4344 135.688 94.2919 135.909 94.212C136.129 94.1321 136.367 94.1184 136.595 94.1725C136.823 94.2266 137.03 94.3462 137.191 94.5165C137.351 94.6869 137.459 94.9005 137.5 95.1311C137.54 95.3617 137.513 95.5992 137.42 95.8143C137.328 96.0294 137.174 96.2128 136.979 96.3417C136.783 96.4707 136.554 96.5396 136.32 96.54L136.29 96.534ZM135.564 95.298C135.552 95.3949 135.56 95.4933 135.587 95.587C135.615 95.6808 135.66 95.7682 135.722 95.8439C135.784 95.9196 135.86 95.982 135.946 96.0276C136.033 96.0731 136.127 96.1007 136.225 96.1088C136.322 96.1168 136.42 96.1052 136.513 96.0746C136.605 96.0439 136.691 95.9949 136.764 95.9304C136.838 95.8659 136.897 95.7873 136.939 95.6992C136.982 95.6112 137.006 95.5156 137.01 95.418C137.022 95.3211 137.014 95.2228 136.987 95.129C136.96 95.0352 136.914 94.9478 136.852 94.8721C136.79 94.7965 136.714 94.734 136.628 94.6885C136.541 94.643 136.447 94.6153 136.349 94.6073C136.252 94.5992 136.154 94.6108 136.061 94.6415C135.969 94.6721 135.883 94.7212 135.81 94.7857C135.737 94.8501 135.677 94.9287 135.635 95.0168C135.593 95.1048 135.568 95.2005 135.564 95.298Z" fill="white"/>
<path opacity="0.7" d="M162.822 127.608H162.57C162.176 127.577 161.791 127.468 161.439 127.288C161.087 127.108 160.774 126.86 160.518 126.558C160.262 126.256 160.068 125.907 159.947 125.53C159.827 125.153 159.782 124.756 159.816 124.362C159.866 123.782 160.084 123.23 160.442 122.771C160.801 122.313 161.285 121.969 161.836 121.781C162.386 121.593 162.98 121.569 163.544 121.712C164.108 121.856 164.618 122.16 165.012 122.588C165.406 123.016 165.667 123.549 165.764 124.123C165.86 124.697 165.787 125.287 165.555 125.82C165.322 126.353 164.939 126.807 164.453 127.127C163.967 127.447 163.398 127.618 162.816 127.62L162.822 127.608ZM162.822 122.034C162.218 122.031 161.633 122.244 161.172 122.634C160.653 123.074 160.329 123.702 160.272 124.38C160.217 125.057 160.434 125.728 160.874 126.246C161.314 126.763 161.941 127.085 162.618 127.14C162.953 127.17 163.291 127.132 163.612 127.029C163.932 126.926 164.229 126.76 164.484 126.54C164.741 126.323 164.953 126.058 165.107 125.76C165.262 125.461 165.356 125.135 165.384 124.8C165.438 124.121 165.223 123.449 164.784 122.928C164.567 122.671 164.301 122.459 164.001 122.306C163.701 122.152 163.374 122.06 163.038 122.034H162.822Z" fill="white"/>
<path opacity="0.3" d="M187.434 153.84L191.31 106.722C191.335 106.421 191.3 106.118 191.207 105.831C191.115 105.543 190.966 105.277 190.771 105.046C190.575 104.816 190.336 104.627 190.067 104.489C189.798 104.352 189.505 104.268 189.204 104.244C188.903 104.219 188.6 104.254 188.313 104.347C188.025 104.439 187.759 104.588 187.528 104.783C187.298 104.979 187.109 105.218 186.971 105.487C186.834 105.756 186.75 106.049 186.726 106.35L182.85 153.468C182.722 155.034 182.209 156.544 181.356 157.863C180.502 159.182 179.336 160.269 177.96 161.028L175.602 162.336L177.72 164.01C178.954 164.983 179.928 166.246 180.556 167.686C181.184 169.127 181.446 170.7 181.32 172.266L176.142 235.266C175.83 239.046 173.454 240.888 170.112 242.358C169.897 242.451 169.719 242.614 169.607 242.82C169.496 243.026 169.456 243.263 169.494 243.494C169.533 243.725 169.648 243.937 169.821 244.095C169.993 244.254 170.214 244.35 170.448 244.368C172.968 244.574 175.466 243.77 177.393 242.134C179.321 240.498 180.52 238.164 180.726 235.644L185.904 172.644C186.032 171.078 185.771 169.504 185.143 168.063C184.514 166.622 183.539 165.36 182.304 164.388L180.186 162.714L182.544 161.4C183.921 160.643 185.088 159.556 185.942 158.236C186.795 156.917 187.308 155.406 187.434 153.84Z" fill="white"/>
<path opacity="0.3" d="M249.714 227.064C249.066 224.124 240.978 225.864 239.304 226.134C236.051 226.723 232.866 227.644 229.8 228.882C226.422 230.202 222.498 232.152 219 230.142C216.978 228.972 223.998 226.674 224.634 226.44C227.617 225.394 230.498 224.074 233.238 222.498C234.348 221.838 236.496 220.26 235.572 218.652C234.804 217.326 232.05 217.452 230.376 217.656C225.302 218.287 220.326 219.544 215.562 221.4C210.926 223.241 206.388 225.32 201.966 227.628C200.251 228.59 198.387 229.259 196.452 229.608C194.34 229.908 191.754 229.464 190.92 228.288C190.086 227.112 191.16 225.756 191.406 224.58C191.753 223.174 191.606 221.691 190.992 220.38C190.582 219.503 189.897 218.782 189.042 218.328C186.756 217.128 183.3 217.572 181.002 218.52C179.513 219.151 178.152 220.05 176.988 221.172C174.643 223.355 172.997 226.184 172.26 229.302C172.074 230.279 171.698 231.209 171.152 232.04C170.607 232.871 169.902 233.586 169.08 234.144C165.864 236.31 159.972 236.184 155.466 235.098C147.6 233.196 141.6 228.834 140.154 223.908C139.452 221.562 139.11 219.138 135.954 218.196C133.914 217.596 129.642 218.01 130.554 220.596C130.886 221.304 131.319 221.961 131.838 222.546C132.672 223.644 133.56 225.714 131.082 226.38C130.279 226.548 129.455 226.587 128.64 226.494C120.672 225.96 113.34 223.302 108.588 219.558C107.039 218.341 105.725 216.85 104.712 215.16C104.148 214.23 103.944 213.234 103.326 212.31C102.737 211.427 101.903 210.735 100.926 210.318C97.8661 208.998 90.6781 209.682 90.1741 212.568C89.9041 214.128 90.8761 215.82 91.3741 217.302C91.4644 217.489 91.4857 217.701 91.4341 217.902C91.2901 218.28 90.7201 218.388 90.2341 218.418C83.8081 218.844 77.5741 216.348 72.1801 213.744C66.4681 210.984 60.1801 207.39 52.2421 207.348C50.6004 207.275 48.9576 207.465 47.3761 207.912C46.9736 208.014 46.6 208.207 46.2841 208.476C46.0901 208.678 45.9613 208.933 45.9142 209.209C45.8671 209.485 45.904 209.769 46.0201 210.024C46.2769 210.551 46.6603 211.007 47.1361 211.35C49.5361 213.306 52.8961 214.098 55.9621 215.106C65.0589 218.067 73.8543 221.884 82.2301 226.506C83.0761 226.98 84.5761 228.078 83.3881 228.906C82.2001 229.734 79.7881 229.194 78.3661 228.96C75.7861 228.54 73.3081 227.874 70.7941 227.238C67.4701 226.404 63.5941 225.636 59.9941 226.332C58.0921 226.698 56.3941 227.478 55.5001 228.534C55.1928 228.843 54.9904 229.242 54.9215 229.672C54.8526 230.103 54.9207 230.544 55.1161 230.934C56.3521 233.136 61.9861 234.09 65.0641 235.134C69.0062 236.478 72.8598 238.07 76.6021 239.898C79.8001 241.476 82.7701 243.21 86.0101 244.764C97.5841 250.32 113.748 251.028 128.202 251.568C143.892 252.168 159.654 251.658 175.302 250.788C186.702 250.152 197.892 248.898 209.064 247.428C212.274 247.002 215.466 246.486 218.664 246.048C221.91 245.676 225.121 245.04 228.264 244.146C229.393 243.858 230.447 243.33 231.354 242.598C232.212 241.806 232.482 240.762 230.946 240.456C227.73 239.814 224.418 240.546 221.274 241.122C217.746 241.762 214.25 242.506 210.786 243.354C209.208 243.778 207.605 244.105 205.986 244.332C204.36 244.563 202.703 244.457 201.12 244.02C200.604 243.858 200.04 243.57 200.01 243.114C199.98 242.658 200.412 242.37 200.856 242.196C207.33 239.634 214.206 237.996 221.13 236.496C225.828 235.476 230.61 234.852 235.344 234.054C239.658 233.334 244.206 233.16 247.944 230.454C248.683 229.975 249.259 229.283 249.594 228.468C249.771 228.022 249.813 227.534 249.714 227.064Z" fill="#5DCCFC"/>
<path opacity="0.3" d="M64.0501 202.8C62.2921 197.796 56.0281 188.946 54.7081 194.178C54.0001 197.088 64.0501 202.8 64.0501 202.8Z" fill="#5DCCFC"/>
<path opacity="0.3" d="M221.358 212.616C224.706 209.562 228.882 207.738 229.422 210.426C229.926 212.964 221.358 212.616 221.358 212.616Z" fill="#5DCCFC"/>
<path opacity="0.3" d="M84.0001 188.322C81.7081 187.122 79.9201 185.196 81.2641 184.392C82.6081 183.588 84.0001 188.322 84.0001 188.322Z" fill="#5DCCFC"/>
</svg>
