<svg width="300" height="300" viewBox="0 0 300 300" fill="none" xmlns="http://www.w3.org/2000/svg">
<path d="M237.702 32.31C237.702 32.31 207.384 7.548 167.952 18.51C128.52 29.472 112.008 63.474 89.3999 86.832C77.5559 99.06 60.0599 103.566 45.9899 112.98C0.989936 143.082 7.66193 210.78 42.3539 236.28C72.3899 258.384 109.92 260.694 158.754 244.392C207.588 228.09 242.532 218.298 272.814 171.6C303.096 124.902 275.052 65.916 237.702 32.31Z" fill="#5DCCFC"/>
<path opacity="0.7" d="M237.702 32.31C237.702 32.31 207.384 7.548 167.952 18.51C128.52 29.472 112.008 63.474 89.3999 86.832C77.5559 99.06 60.0599 103.566 45.9899 112.98C0.989936 143.082 7.66193 210.78 42.3539 236.28C72.3899 258.384 109.92 260.694 158.754 244.392C207.588 228.09 242.532 218.298 272.814 171.6C303.096 124.902 275.052 65.916 237.702 32.31Z" fill="white"/>
<path d="M254.682 147.462C254.682 147.462 254.682 143.646 249.336 138.3C243.99 132.954 240.552 129.9 240.552 129.9C240.552 129.9 237.876 138.684 242.844 144.03C247.812 149.376 254.682 154.344 254.682 154.344V147.462Z" fill="#5DCCFC"/>
<path d="M246.924 171.312C246.924 171.312 246.924 167.496 241.578 162.15C236.232 156.804 232.794 153.75 232.794 153.75C232.794 153.75 230.118 162.534 235.086 167.886C240.054 173.238 246.924 178.2 246.924 178.2V171.312Z" fill="#5DCCFC"/>
<path d="M254.346 153.966C254.346 153.966 254.748 150.168 260.634 145.416C266.52 140.664 270.234 137.994 270.234 137.994C270.234 137.994 271.968 146.994 266.466 151.794C260.964 156.594 253.602 160.794 253.602 160.794L254.346 153.966Z" fill="#5DCCFC"/>
<path d="M244.974 182.136C244.974 182.136 245.772 178.404 252.12 174.294C258.468 170.184 262.47 167.916 262.47 167.916C262.47 167.916 263.244 177.066 257.268 181.254C251.292 185.442 243.534 188.856 243.534 188.856L244.974 182.136Z" fill="#5DCCFC"/>
<path d="M246.732 212.844C246.732 212.844 246.732 209.028 252.084 203.682C257.436 198.336 260.862 195.282 260.862 195.282C260.862 195.282 263.538 204.06 258.6 209.4C253.662 214.74 246.756 219.714 246.756 219.714L246.732 212.844Z" fill="#5DCCFC"/>
<path d="M246.648 220.344C246.648 220.344 247.188 216.564 242.658 210.51C238.128 204.456 235.152 200.946 235.152 200.946C235.152 200.946 231.258 209.262 235.416 215.256C239.574 221.25 245.67 227.148 245.67 227.148L246.648 220.344Z" fill="#5DCCFC"/>
<path d="M241.374 242.556C241.374 242.556 241.374 238.74 246.72 233.394C252.066 228.048 255.504 224.994 255.504 224.994C255.504 224.994 258.174 233.778 253.212 239.124C248.25 244.47 241.374 249.438 241.374 249.438V242.556Z" fill="#5DCCFC"/>
<path d="M244.944 262.698C244.944 262.698 243.978 259.002 247.794 252.498C251.61 245.994 254.166 242.142 254.166 242.142C254.166 242.142 258.966 249.942 255.528 256.392C252.09 262.842 246.684 269.364 246.684 269.364L244.944 262.698Z" fill="#5DCCFC"/>
<path d="M255.168 146.484C254.896 150.46 254.407 154.418 253.704 158.34C251.586 169.26 246.306 176.34 244.194 186.168C242.082 195.996 248.148 208.74 246.522 221.406C244.896 234.072 239.964 241.122 241.374 249.576C242.784 258.03 250.374 281.376 250.374 281.376" stroke="#263238" stroke-linecap="round" stroke-linejoin="round"/>
<path d="M254.292 156.504L260.058 152.082" stroke="#263238" stroke-linecap="round" stroke-linejoin="round"/>
<path d="M254.562 151.416L252.15 147.126" stroke="#263238" stroke-linecap="round" stroke-linejoin="round"/>
<path d="M244.512 185.718C244.512 185.718 249.312 182.118 254.292 178.482" stroke="#263238" stroke-linecap="round" stroke-linejoin="round"/>
<path d="M246.924 178.2C246.924 178.2 242.904 170.322 238.35 165.096" stroke="#263238" stroke-linecap="round" stroke-linejoin="round"/>
<path d="M246.924 218.28C249.677 213.204 253.154 208.556 257.244 204.48" stroke="#263238" stroke-linecap="round" stroke-linejoin="round"/>
<path d="M246 223.638C244.535 220.193 242.787 216.876 240.774 213.72C237.96 209.568 237.558 209.034 237.558 209.034" stroke="#263238" stroke-linecap="round" stroke-linejoin="round"/>
<path d="M241.374 249.6C242.595 246.565 244.047 243.628 245.718 240.816C247.386 238.193 249.268 235.712 251.346 233.4" stroke="#263238" stroke-linecap="round" stroke-linejoin="round"/>
<path d="M246.684 269.346C246.684 269.346 246.12 264.774 248.13 260.892C250.14 257.01 252.42 251.892 253.356 249.9" stroke="#263238" stroke-linecap="round" stroke-linejoin="round"/>
<path d="M211.05 198.486C211.05 198.486 210.636 196.086 213.408 192.156C216.18 188.226 218.004 185.934 218.004 185.934C218.004 185.934 220.632 191.154 218.1 195.042C216.221 197.8 214.114 200.395 211.8 202.8L211.05 198.486Z" fill="#5DCCFC"/>
<path d="M218.508 212.598C218.508 212.598 218.094 210.198 220.866 206.268C223.638 202.338 225.462 200.046 225.462 200.046C225.462 200.046 228.09 205.266 225.558 209.154C223.677 211.91 221.568 214.503 219.252 216.906L218.508 212.598Z" fill="#5DCCFC"/>
<path d="M211.968 202.524C211.968 202.524 211.302 200.19 207.096 197.85C202.89 195.51 200.256 194.25 200.256 194.25C200.256 194.25 200.154 200.094 204.12 202.5C207.012 204.169 210.038 205.592 213.168 206.754L211.968 202.524Z" fill="#5DCCFC"/>
<path d="M220.902 219.174C220.902 219.174 219.996 216.918 215.568 215.028C211.14 213.138 208.368 212.154 208.368 212.154C208.368 212.154 208.878 217.974 213.078 219.954C216.126 221.309 219.284 222.405 222.516 223.23L220.902 219.174Z" fill="#5DCCFC"/>
<path d="M223.134 238.62C223.134 238.62 222.72 236.22 218.784 233.454C214.848 230.688 212.364 229.14 212.364 229.14C212.364 229.14 211.644 234.936 215.334 237.75C218.033 239.712 220.891 241.446 223.878 242.934L223.134 238.62Z" fill="#5DCCFC"/>
<path d="M224.004 243.312C224.004 243.312 223.254 241.002 225.438 236.712C227.622 232.422 229.104 229.902 229.104 229.902C229.104 229.902 232.446 234.702 230.49 238.902C229.021 241.897 227.303 244.763 225.354 247.47L224.004 243.312Z" fill="#5DCCFC"/>
<path d="M230.712 262.626C230.712 262.626 230.988 260.226 234.756 257.226C238.524 254.226 240.924 252.552 240.924 252.552C240.924 252.552 241.974 258.3 238.446 261.324C235.865 263.442 233.111 265.34 230.214 267L230.712 262.626Z" fill="#5DCCFC"/>
<path d="M229.722 256.668C229.722 256.668 229.308 254.268 225.372 251.502C221.436 248.736 218.952 247.188 218.952 247.188C218.952 247.188 218.232 252.984 221.922 255.798C224.62 257.767 227.478 259.507 230.466 261L229.722 256.668Z" fill="#5DCCFC"/>
<path d="M229.668 269.688C229.668 269.688 229.872 267.288 226.77 263.586C223.668 259.884 221.652 257.79 221.652 257.79C221.652 257.79 219.486 263.19 222.342 266.874C224.456 269.453 226.782 271.852 229.296 274.044L229.668 269.688Z" fill="#5DCCFC"/>
<path d="M210.642 197.922C211.241 200.387 211.977 202.816 212.844 205.2C215.358 211.8 219.444 215.664 221.844 221.616C224.244 227.568 221.814 236.202 224.208 243.966C226.602 251.73 230.46 255.618 230.496 261.072C230.532 266.526 228.534 281.28 228.534 281.28" stroke="#263238" stroke-linecap="round" stroke-linejoin="round"/>
<path d="M212.274 204.114L208.182 201.966" stroke="#263238" stroke-linecap="round" stroke-linejoin="round"/>
<path d="M211.554 200.946L212.604 198" stroke="#263238" stroke-linecap="round" stroke-linejoin="round"/>
<path d="M221.58 221.4C221.58 221.4 218.166 219.654 214.662 217.92" stroke="#263238" stroke-linecap="round" stroke-linejoin="round"/>
<path d="M219.252 216.906C219.252 216.906 220.914 211.506 223.206 207.756" stroke="#263238" stroke-linecap="round" stroke-linejoin="round"/>
<path d="M223.602 242.046C221.325 239.163 218.641 236.626 215.634 234.516" stroke="#263238" stroke-linecap="round" stroke-linejoin="round"/>
<path d="M224.772 245.31C225.317 242.991 226.053 240.721 226.974 238.524C228.288 235.614 228.48 235.23 228.48 235.23" stroke="#263238" stroke-linecap="round" stroke-linejoin="round"/>
<path d="M230.298 265.2C230.298 265.2 233.01 261.876 234.696 260.634C235.714 259.883 236.672 259.053 237.558 258.15" stroke="#263238" stroke-linecap="round" stroke-linejoin="round"/>
<path d="M230.484 261.072C229.387 259.302 228.158 257.617 226.806 256.032C225.474 254.58 224.025 253.24 222.474 252.024" stroke="#263238" stroke-linecap="round" stroke-linejoin="round"/>
<path d="M229.296 274.044C229.166 272.2 228.545 270.424 227.496 268.902C225.816 266.682 223.836 263.736 223.026 262.578" stroke="#263238" stroke-linecap="round" stroke-linejoin="round"/>
<path d="M50.1541 147.462C50.1541 147.462 50.1541 143.646 55.5001 138.3C60.8461 132.954 64.2841 129.9 64.2841 129.9C64.2841 129.9 66.9601 138.684 61.9981 144.03C57.0361 149.376 50.1541 154.344 50.1541 154.344V147.462Z" fill="#5DCCFC"/>
<path d="M57.918 171.312C57.918 171.312 57.918 167.496 63.264 162.15C68.61 156.804 72.048 153.75 72.048 153.75C72.048 153.75 74.718 162.534 69.756 167.886C64.794 173.238 57.918 178.2 57.918 178.2V171.312Z" fill="#5DCCFC"/>
<path d="M50.49 153.966C50.49 153.966 50.088 150.168 44.208 145.416C38.328 140.664 34.608 137.994 34.608 137.994C34.608 137.994 32.88 146.994 38.382 151.794C43.884 156.594 51.24 160.794 51.24 160.794L50.49 153.966Z" fill="#5DCCFC"/>
<path d="M59.8681 182.136C59.8681 182.136 59.0641 178.404 52.7161 174.294C46.3681 170.184 42.3661 167.916 42.3661 167.916C42.3661 167.916 41.5981 177.066 47.5681 181.254C53.5381 185.442 61.3081 188.856 61.3081 188.856L59.8681 182.136Z" fill="#5DCCFC"/>
<path d="M58.1041 212.844C58.1041 212.844 58.1041 209.028 52.7581 203.682C47.4121 198.336 43.9741 195.282 43.9741 195.282C43.9741 195.282 41.2981 204.06 46.2661 209.4C51.2341 214.74 58.1041 219.72 58.1041 219.72V212.844Z" fill="#5DCCFC"/>
<path d="M58.2 220.344C58.2 220.344 57.654 216.564 62.19 210.51C66.726 204.456 69.69 200.946 69.69 200.946C69.69 200.946 73.584 209.262 69.432 215.256C65.28 221.25 59.178 227.148 59.178 227.148L58.2 220.344Z" fill="#5DCCFC"/>
<path d="M63.4679 242.556C63.4679 242.556 63.4679 238.74 58.1159 233.394C52.7639 228.048 49.3379 224.994 49.3379 224.994C49.3379 224.994 46.6619 233.772 51.5999 239.118C56.5379 244.464 63.4439 249.432 63.4439 249.432L63.4679 242.556Z" fill="#5DCCFC"/>
<path d="M59.8981 262.698C59.8981 262.698 60.8641 259.002 57.0421 252.498C53.2201 245.994 50.6761 242.142 50.6761 242.142C50.6761 242.142 45.8761 249.942 49.3141 256.392C52.7521 262.842 58.1521 269.364 58.1521 269.364L59.8981 262.698Z" fill="#5DCCFC"/>
<path d="M49.6741 146.484C49.9432 150.46 50.432 154.418 51.1381 158.34C53.2501 169.26 58.5361 176.34 60.6481 186.168C62.7601 195.996 56.6941 208.74 58.3201 221.4C59.9461 234.06 64.8721 241.116 63.4681 249.57C62.0641 258.024 54.4681 281.37 54.4681 281.37" stroke="#263238" stroke-linecap="round" stroke-linejoin="round"/>
<path d="M50.5439 156.504L44.7839 152.082" stroke="#263238" stroke-linecap="round" stroke-linejoin="round"/>
<path d="M50.28 151.416L52.692 147.126" stroke="#263238" stroke-linecap="round" stroke-linejoin="round"/>
<path d="M60.3239 185.718C60.3239 185.718 55.5239 182.118 50.5439 178.482" stroke="#263238" stroke-linecap="round" stroke-linejoin="round"/>
<path d="M57.918 178.2C57.918 178.2 61.932 170.322 66.492 165.096" stroke="#263238" stroke-linecap="round" stroke-linejoin="round"/>
<path d="M57.9121 218.28C55.1597 213.205 51.6855 208.557 47.5981 204.48" stroke="#263238" stroke-linecap="round" stroke-linejoin="round"/>
<path d="M58.854 223.638C60.3186 220.193 62.0666 216.876 64.08 213.72C66.894 209.568 67.296 209.034 67.296 209.034" stroke="#263238" stroke-linecap="round" stroke-linejoin="round"/>
<path d="M63.4681 249.6C62.2438 246.566 60.7896 243.629 59.1181 240.816C57.4534 238.192 55.5729 235.712 53.4961 233.4" stroke="#263238" stroke-linecap="round" stroke-linejoin="round"/>
<path d="M58.1521 269.346C58.1521 269.346 58.7161 264.774 56.7121 260.892C54.7081 257.01 52.4221 251.892 51.4861 249.9" stroke="#263238" stroke-linecap="round" stroke-linejoin="round"/>
<path d="M93.786 198.486C93.786 198.486 94.2 196.086 91.428 192.156C88.656 188.226 86.832 185.934 86.832 185.934C86.832 185.934 84.204 191.154 86.736 195.042C88.6167 197.8 90.7261 200.395 93.042 202.8L93.786 198.486Z" fill="#5DCCFC"/>
<path d="M86.3341 212.598C86.3341 212.598 86.7481 210.198 83.9761 206.268C81.2041 202.338 79.3801 200.046 79.3801 200.046C79.3801 200.046 76.7521 205.266 79.2841 209.154C81.1639 211.909 83.2713 214.502 85.5841 216.906L86.3341 212.598Z" fill="#5DCCFC"/>
<path d="M92.8741 202.524C92.8741 202.524 93.5341 200.19 97.7401 197.85C101.946 195.51 104.58 194.25 104.58 194.25C104.58 194.25 104.688 200.094 100.716 202.5C97.8263 204.168 94.8017 205.591 91.6741 206.754L92.8741 202.524Z" fill="#5DCCFC"/>
<path d="M83.9341 219.174C83.9341 219.174 84.8401 216.918 89.2681 215.028C93.6961 213.138 96.4681 212.154 96.4681 212.154C96.4681 212.154 95.9581 217.974 91.7581 219.954C88.7095 221.309 85.5524 222.405 82.3201 223.23L83.9341 219.174Z" fill="#5DCCFC"/>
<path d="M81.708 238.62C81.708 238.62 82.122 236.22 86.052 233.454C89.982 230.688 92.472 229.14 92.472 229.14C92.472 229.14 93.198 234.936 89.472 237.75C86.7738 239.714 83.9158 241.448 80.928 242.934L81.708 238.62Z" fill="#5DCCFC"/>
<path d="M80.838 243.312C80.838 243.312 81.588 241.002 79.404 236.712C77.22 232.422 75.738 229.902 75.738 229.902C75.738 229.902 72.39 234.702 74.346 238.902C75.8182 241.896 77.5381 244.762 79.488 247.47L80.838 243.312Z" fill="#5DCCFC"/>
<path d="M74.1241 262.626C74.1241 262.626 73.8481 260.226 70.0801 257.226C66.3121 254.226 63.9181 252.552 63.9181 252.552C63.9181 252.552 62.8621 258.3 66.3901 261.324C68.9714 263.442 71.725 265.34 74.6221 267L74.1241 262.626Z" fill="#5DCCFC"/>
<path d="M75.1201 256.668C75.1201 256.668 75.5341 254.268 79.4641 251.502C83.3941 248.736 85.8841 247.188 85.8841 247.188C85.8841 247.188 86.6101 252.984 82.9141 255.798C80.2263 257.766 77.3783 259.507 74.4001 261L75.1201 256.668Z" fill="#5DCCFC"/>
<path d="M75.1741 269.688C75.1741 269.688 74.9641 267.288 78.0661 263.586C81.1681 259.884 83.1841 257.79 83.1841 257.79C83.1841 257.79 85.3561 263.19 82.4941 266.874C80.3798 269.453 78.0537 271.852 75.5401 274.044L75.1741 269.688Z" fill="#5DCCFC"/>
<path d="M94.2001 197.922C93.5961 200.386 92.8591 202.816 91.9921 205.2C89.4841 211.8 85.3921 215.664 82.9921 221.616C80.5921 227.568 82.9921 236.202 80.6221 243.966C78.2521 251.73 74.4001 255.6 74.3581 261.072C74.3161 266.544 76.3201 281.28 76.3201 281.28" stroke="#263238" stroke-linecap="round" stroke-linejoin="round"/>
<path d="M92.562 204.114L96.654 201.966" stroke="#263238" stroke-linecap="round" stroke-linejoin="round"/>
<path d="M93.282 200.946L92.238 198" stroke="#263238" stroke-linecap="round" stroke-linejoin="round"/>
<path d="M83.2561 221.4C83.2561 221.4 86.6761 219.654 90.1741 217.92" stroke="#263238" stroke-linecap="round" stroke-linejoin="round"/>
<path d="M85.5841 216.906C85.5841 216.906 83.9221 211.506 81.6301 207.756" stroke="#263238" stroke-linecap="round" stroke-linejoin="round"/>
<path d="M81.2341 242.046C83.5129 239.165 86.1967 236.628 89.2021 234.516" stroke="#263238" stroke-linecap="round" stroke-linejoin="round"/>
<path d="M80.064 245.31C79.5194 242.991 78.7829 240.721 77.862 238.524C76.548 235.614 76.356 235.23 76.356 235.23" stroke="#263238" stroke-linecap="round" stroke-linejoin="round"/>
<path d="M74.5439 265.2C74.5439 265.2 71.8319 261.876 70.1399 260.634C69.1242 259.882 68.1692 259.052 67.2839 258.15" stroke="#263238" stroke-linecap="round" stroke-linejoin="round"/>
<path d="M74.3579 261.072C75.4526 259.3 76.6823 257.615 78.0359 256.032C79.3654 254.579 80.8123 253.239 82.3619 252.024" stroke="#263238" stroke-linecap="round" stroke-linejoin="round"/>
<path d="M75.54 274.044C75.6732 272.201 76.2945 270.426 77.34 268.902C79.026 266.682 81.006 263.736 81.81 262.578" stroke="#263238" stroke-linecap="round" stroke-linejoin="round"/>
<path d="M206.904 281.1C207.156 275.772 207.228 263.502 203.592 252.054C198.792 236.88 189.144 216.414 186.978 213.054C184.812 209.694 186.978 205.854 186.978 205.854C189.842 197.35 191.701 188.54 192.516 179.604C192.516 179.604 193.716 180.09 197.088 183.204C200.46 186.318 230.784 204.948 235.596 205.914C240.408 206.88 247.566 204.552 249.252 201.18C250.938 197.808 217.56 162.738 208.65 154.068C199.74 145.398 178.05 146.868 174.45 144.678C170.85 142.488 170.592 139.62 173.004 130.47C175.416 121.32 183.36 112.89 184.32 105.426C185.28 97.962 179.748 83.514 167.226 76.026C154.704 68.538 145.8 72.894 145.8 72.894C145.8 72.894 138.816 78.894 137.85 83.49C136.884 88.086 137.37 89.748 134.25 91.674C131.13 93.6 126.306 92.874 126.786 94.566C127.266 96.258 128.472 100.344 130.878 100.566C130.878 100.566 127.506 103.698 128.232 105.144C128.67 106.045 128.915 107.028 128.952 108.03C128.952 108.03 128.232 109.956 128.952 111.402C129.413 112.339 129.814 113.305 130.152 114.294C130.152 114.294 130.872 119.094 134.484 120.072C138.096 121.05 144.6 120.6 144.6 120.6C144.6 120.6 143.874 128.55 142.434 136.494C140.994 144.438 137.376 143.478 127.74 142.998C118.104 142.518 107.754 146.13 103.662 149.496C99.5698 152.862 78.5998 159.342 78.5998 159.342C78.5998 159.342 74.0218 140.316 73.5418 138.39C73.0618 136.464 72.5998 128.28 72.5998 123.462C72.5998 118.644 74.2858 110.214 74.7658 106.122C75.2458 102.03 63.9298 100.824 63.4438 102.75C62.9578 104.676 60.0778 129.48 57.9058 139.35C55.7338 149.22 56.9458 161.742 56.7058 170.892C56.4658 180.042 59.5918 184.14 63.4438 183.66C67.2958 183.18 79.8238 181.974 92.1058 181.008C104.388 180.042 115.704 173.808 115.704 173.808L117.39 174.048C117.39 174.048 110.88 183.666 111.6 189.924C112.32 196.182 116.898 200.52 118.344 202.206C119.543 203.791 120.591 205.484 121.476 207.264C121.476 207.264 122.676 214.464 120.51 217.134C118.344 219.804 110.91 232.788 107.268 247.734C104.442 259.41 105.3 274.914 105.81 281.118" fill="#CCCCCC"/>
<mask id="mask0_1_2476" style="mask-type:luminance" maskUnits="userSpaceOnUse" x="56" y="71" width="194" height="211">
<path d="M206.904 281.1C207.156 275.772 207.228 263.502 203.592 252.054C198.792 236.88 189.144 216.414 186.978 213.054C184.812 209.694 186.978 205.854 186.978 205.854C189.842 197.35 191.701 188.54 192.516 179.604C192.516 179.604 193.716 180.09 197.088 183.204C200.46 186.318 230.784 204.948 235.596 205.914C240.408 206.88 247.566 204.552 249.252 201.18C250.938 197.808 217.56 162.738 208.65 154.068C199.74 145.398 178.05 146.868 174.45 144.678C170.85 142.488 170.592 139.62 173.004 130.47C175.416 121.32 183.36 112.89 184.32 105.426C185.28 97.962 179.748 83.514 167.226 76.026C154.704 68.538 145.8 72.894 145.8 72.894C145.8 72.894 138.816 78.894 137.85 83.49C136.884 88.086 137.37 89.748 134.25 91.674C131.13 93.6 126.306 92.874 126.786 94.566C127.266 96.258 128.472 100.344 130.878 100.566C130.878 100.566 127.506 103.698 128.232 105.144C128.67 106.045 128.915 107.028 128.952 108.03C128.952 108.03 128.232 109.956 128.952 111.402C129.413 112.339 129.814 113.305 130.152 114.294C130.152 114.294 130.872 119.094 134.484 120.072C138.096 121.05 144.6 120.6 144.6 120.6C144.6 120.6 143.874 128.55 142.434 136.494C140.994 144.438 137.376 143.478 127.74 142.998C118.104 142.518 107.754 146.13 103.662 149.496C99.5698 152.862 78.5998 159.342 78.5998 159.342C78.5998 159.342 74.0218 140.316 73.5418 138.39C73.0618 136.464 72.5998 128.28 72.5998 123.462C72.5998 118.644 74.2858 110.214 74.7658 106.122C75.2458 102.03 63.9298 100.824 63.4438 102.75C62.9578 104.676 60.0778 129.48 57.9058 139.35C55.7338 149.22 56.9458 161.742 56.7058 170.892C56.4658 180.042 59.5918 184.14 63.4438 183.66C67.2958 183.18 79.8238 181.974 92.1058 181.008C104.388 180.042 115.704 173.808 115.704 173.808L117.39 174.048C117.39 174.048 110.88 183.666 111.6 189.924C112.32 196.182 116.898 200.52 118.344 202.206C119.543 203.791 120.591 205.484 121.476 207.264C121.476 207.264 122.676 214.464 120.51 217.134C118.344 219.804 110.91 232.788 107.268 247.734C104.442 259.41 105.3 274.914 105.81 281.118" fill="white"/>
</mask>
<g mask="url(#mask0_1_2476)">
<g opacity="0.2">
<path d="M105.75 160.896C101.496 160.242 91.3498 169.404 82.5178 173.982C73.6858 178.56 65.8258 177.258 60.5938 176.604C59.3271 176.446 58.0889 176.111 56.9158 175.608C57.6838 181.452 60.3238 184.05 63.4378 183.666C67.2958 183.18 79.8178 181.98 92.0998 181.014C104.382 180.048 115.698 173.814 115.698 173.814L117.384 174.054C117.384 174.054 116.376 175.548 115.2 177.732C117.6 176.742 119.496 175.974 119.496 175.974C119.496 175.974 110.004 161.55 105.75 160.896Z" fill="black"/>
<path d="M208.65 154.044C204.366 149.88 197.148 148.044 190.392 147.036C183.084 145.932 176.328 145.782 174.45 144.636C170.85 142.47 170.592 139.578 173.004 130.428C175.416 121.278 183.36 112.848 184.32 105.384C185.28 97.92 179.748 83.472 167.226 75.984C154.704 68.496 145.8 72.894 145.8 72.894C145.8 72.894 144.816 73.74 143.538 75.036C145.338 79.404 151.728 94.626 156.474 99.372C162.042 104.934 160.404 112.134 156.15 114.75C151.896 117.366 134.478 120.09 134.478 120.09L158.112 119.988L165.636 137.658C165.636 137.658 155.496 153.696 161.382 161.22C167.268 168.744 186.912 176.274 198.036 163.842C199.468 162.142 200.641 160.239 201.516 158.196C208.896 165.618 218.064 174.864 224.868 181.836C235.434 192.636 242.34 199.422 244.806 204.684C246.864 203.802 248.544 202.578 249.252 201.156C250.938 197.79 217.56 162.714 208.65 154.044Z" fill="black"/>
<path d="M186.978 213.042C184.806 209.67 186.978 205.842 186.978 205.842C189.842 197.338 191.701 188.528 192.516 179.592C192.642 179.651 192.764 179.717 192.882 179.79C188.142 176.028 181.014 170.634 180.366 171.72C179.382 173.352 180.69 179.898 181.344 188.736C181.998 197.574 174.144 209.676 178.728 218.514C183.312 227.352 198.366 237.822 204.582 255.822L204.798 256.422C204.45 254.964 204.048 253.506 203.598 252.06C198.774 236.88 189.144 216.414 186.978 213.042Z" fill="black"/>
</g>
</g>
<path d="M206.904 281.1C207.156 275.772 207.228 263.502 203.592 252.054C198.792 236.88 189.144 216.414 186.978 213.054C184.812 209.694 186.978 205.854 186.978 205.854C189.842 197.35 191.701 188.54 192.516 179.604C192.516 179.604 193.716 180.09 197.088 183.204C200.46 186.318 230.784 204.948 235.596 205.914C240.408 206.88 247.566 204.552 249.252 201.18C250.938 197.808 217.56 162.738 208.65 154.068C199.74 145.398 178.05 146.868 174.45 144.678C170.85 142.488 170.592 139.62 173.004 130.47C175.416 121.32 183.36 112.89 184.32 105.426C185.28 97.962 179.748 83.514 167.226 76.026C154.704 68.538 145.8 72.894 145.8 72.894C145.8 72.894 138.816 78.894 137.85 83.49C136.884 88.086 137.37 89.748 134.25 91.674C131.13 93.6 126.306 92.874 126.786 94.566C127.266 96.258 128.472 100.344 130.878 100.566C130.878 100.566 127.506 103.698 128.232 105.144C128.67 106.045 128.915 107.028 128.952 108.03C128.952 108.03 128.232 109.956 128.952 111.402C129.413 112.339 129.814 113.305 130.152 114.294C130.152 114.294 130.872 119.094 134.484 120.072C138.096 121.05 144.6 120.6 144.6 120.6C144.6 120.6 143.874 128.55 142.434 136.494C140.994 144.438 137.376 143.478 127.74 142.998C118.104 142.518 107.754 146.13 103.662 149.496C99.5698 152.862 78.5998 159.342 78.5998 159.342C78.5998 159.342 74.0218 140.316 73.5418 138.39C73.0618 136.464 72.5998 128.28 72.5998 123.462C72.5998 118.644 74.2858 110.214 74.7658 106.122C75.2458 102.03 63.9298 100.824 63.4438 102.75C62.9578 104.676 60.0778 129.48 57.9058 139.35C55.7338 149.22 56.9458 161.742 56.7058 170.892C56.4658 180.042 59.5918 184.14 63.4438 183.66C67.2958 183.18 79.8238 181.974 92.1058 181.008C104.388 180.042 115.704 173.808 115.704 173.808L117.39 174.048C117.39 174.048 110.88 183.666 111.6 189.924C112.32 196.182 116.898 200.52 118.344 202.206C119.543 203.791 120.591 205.484 121.476 207.264C121.476 207.264 122.676 214.464 120.51 217.134C118.344 219.804 110.91 232.788 107.268 247.734C104.442 259.41 105.3 274.914 105.81 281.118" stroke="#263238" stroke-linecap="round" stroke-linejoin="round"/>
<path d="M141.216 91.488L139.68 92.64C139.68 92.64 141.6 96.474 146.772 92.448C146.772 92.448 143.13 92.64 141.216 91.488Z" fill="#263238" stroke="#263238" stroke-linecap="round" stroke-linejoin="round"/>
<path d="M141.792 84.6C141.792 84.6 145.05 81.342 149.076 86.706" stroke="#263238" stroke-width="2" stroke-linecap="round" stroke-linejoin="round"/>
<path d="M140.448 97.242C142.379 96.6724 144.424 96.6063 146.388 97.05" stroke="#263238" stroke-width="0.5" stroke-linecap="round" stroke-linejoin="round"/>
<path d="M141.6 98.196C143.437 97.8609 145.319 97.8609 147.156 98.196" stroke="#263238" stroke-width="0.5" stroke-linecap="round" stroke-linejoin="round"/>
<path d="M128.814 147.516L146.208 150.738" stroke="#263238" stroke-linecap="round" stroke-linejoin="round"/>
<path d="M168.114 149.448L153.936 150.738" stroke="#263238" stroke-linecap="round" stroke-linejoin="round"/>
<path d="M183.9 173.61L192.516 179.568L182.61 176.508" stroke="#263238" stroke-linecap="round" stroke-linejoin="round"/>
<path d="M115.698 173.79L106.908 167.166" stroke="#263238" stroke-linecap="round" stroke-linejoin="round"/>
<path d="M78.5999 159.342C78.5999 159.342 75.6479 165.234 70.1699 167.814" stroke="#263238" stroke-linecap="round" stroke-linejoin="round"/>
<path d="M129.687 100.432L122.532 99.4403L121.507 106.834L128.663 107.825L129.687 100.432Z" fill="white" stroke="#263238" stroke-linecap="round" stroke-linejoin="round"/>
<path d="M119.082 91.062L106.74 89.352C106.594 89.2602 106.431 89.2009 106.26 89.178C105.928 89.1318 105.592 89.2188 105.324 89.4201C105.056 89.6214 104.879 89.9205 104.832 90.252L104.73 91.026H104.61L104.718 90.252C104.74 90.0877 104.73 89.9206 104.688 89.7603C104.646 89.5999 104.573 89.4494 104.472 89.3173C104.372 89.1853 104.247 89.0743 104.104 88.9907C103.96 88.9071 103.802 88.8525 103.638 88.83C103.474 88.8075 103.307 88.8177 103.146 88.8598C102.986 88.9019 102.835 88.9752 102.703 89.0755C102.571 89.1758 102.46 89.3011 102.377 89.4443C102.293 89.5875 102.238 89.7457 102.216 89.91L102.108 90.684H101.994L102.096 89.91C102.119 89.7461 102.109 89.5793 102.068 89.4192C102.026 89.259 101.953 89.1086 101.853 88.9766C101.754 88.8445 101.629 88.7334 101.486 88.6496C101.344 88.5657 101.186 88.5108 101.022 88.488C100.849 88.4635 100.673 88.4757 100.506 88.524L82.3559 86.01C82.2085 85.9174 82.0426 85.8581 81.8699 85.836C81.706 85.8131 81.5392 85.8228 81.3791 85.8644C81.2189 85.906 81.0685 85.9787 80.9365 86.0785C80.8044 86.1782 80.6933 86.303 80.6095 86.4456C80.5257 86.5883 80.4708 86.7461 80.4479 86.91L80.3399 87.684H80.2199L80.3279 86.91C80.3546 86.7442 80.3478 86.5747 80.308 86.4116C80.2683 86.2485 80.1963 86.0949 80.0963 85.96C79.9963 85.825 79.8704 85.7115 79.7259 85.6259C79.5814 85.5403 79.4213 85.4845 79.2549 85.4617C79.0886 85.4389 78.9193 85.4496 78.7571 85.4931C78.5949 85.5367 78.4431 85.6122 78.3105 85.7153C78.1779 85.8184 78.0673 85.9469 77.9851 86.0933C77.9029 86.2398 77.8508 86.4011 77.8319 86.568L77.7239 87.336H77.6039L77.7119 86.562C77.7563 86.2304 77.6677 85.8946 77.4653 85.6282C77.2629 85.3617 76.9633 85.1862 76.6319 85.14C76.4613 85.1152 76.2874 85.1275 76.1219 85.176L58.0199 82.602C57.425 82.5191 56.8196 82.5541 56.2382 82.7053C55.6569 82.8564 55.111 83.1206 54.6318 83.4828C54.1526 83.845 53.7495 84.298 53.4454 84.8161C53.1414 85.3341 52.9424 85.907 52.8599 86.502L50.9399 100.338C50.7741 101.54 51.0924 102.759 51.8248 103.727C52.5573 104.694 53.6439 105.331 54.8459 105.498L72.7859 107.988C72.9679 108.139 73.188 108.236 73.4219 108.27C73.5858 108.293 73.7526 108.283 73.9128 108.242C74.0729 108.2 74.2233 108.127 74.3554 108.028C74.4874 107.928 74.5985 107.803 74.6823 107.66C74.7662 107.518 74.8211 107.36 74.8439 107.196L74.9999 106.062H75.1199L74.9639 107.196C74.9373 107.362 74.944 107.531 74.9838 107.694C75.0236 107.858 75.0956 108.011 75.1955 108.146C75.2955 108.281 75.4214 108.395 75.5659 108.48C75.7104 108.566 75.8705 108.622 76.0369 108.644C76.2033 108.667 76.3725 108.656 76.5347 108.613C76.6969 108.569 76.8487 108.494 76.9813 108.391C77.1139 108.288 77.2245 108.159 77.3067 108.013C77.3889 107.866 77.441 107.705 77.4599 107.538L77.6159 106.41H77.7359L77.5799 107.538C77.5571 107.702 77.5667 107.869 77.6083 108.029C77.6499 108.189 77.7227 108.339 77.8224 108.471C77.9221 108.604 78.0469 108.715 78.1896 108.798C78.3322 108.882 78.49 108.937 78.6539 108.96C78.8889 108.995 79.1291 108.96 79.3439 108.858L97.1999 111.366C97.3705 111.513 97.578 111.61 97.7999 111.648C97.9639 111.672 98.131 111.663 98.2915 111.621C98.4519 111.58 98.6027 111.507 98.7349 111.408C98.8671 111.308 98.9782 111.183 99.0618 111.04C99.1454 110.896 99.1998 110.738 99.2219 110.574L99.3839 109.446H99.4979L99.3419 110.58C99.3195 110.744 99.3296 110.911 99.3717 111.072C99.4138 111.232 99.4871 111.383 99.5874 111.515C99.6877 111.647 99.813 111.758 99.9562 111.841C100.099 111.925 100.258 111.98 100.422 112.002C100.586 112.024 100.753 112.014 100.914 111.972C101.074 111.93 101.225 111.857 101.357 111.757C101.489 111.656 101.6 111.531 101.683 111.388C101.767 111.245 101.821 111.086 101.844 110.922L102 109.8H102.12L101.958 110.928C101.913 111.26 102.002 111.595 102.205 111.862C102.407 112.128 102.707 112.304 103.038 112.35C103.273 112.385 103.513 112.35 103.728 112.248L115.902 113.934C116.497 114.017 117.102 113.982 117.684 113.831C118.265 113.68 118.811 113.415 119.29 113.053C119.769 112.691 120.172 112.238 120.476 111.72C120.78 111.202 120.979 110.629 121.062 110.034L122.982 96.198C123.139 95.0008 122.818 93.7899 122.088 92.8282C121.358 91.8666 120.277 91.2319 119.082 91.062Z" fill="white"/>
<mask id="mask1_1_2476" style="mask-type:luminance" maskUnits="userSpaceOnUse" x="50" y="82" width="74" height="32">
<path d="M119.082 91.062L106.74 89.352C106.594 89.2602 106.431 89.2009 106.26 89.178C105.928 89.1318 105.592 89.2188 105.324 89.4201C105.056 89.6214 104.879 89.9205 104.832 90.252L104.73 91.026H104.61L104.718 90.252C104.74 90.0877 104.73 89.9206 104.688 89.7603C104.646 89.5999 104.573 89.4494 104.472 89.3173C104.372 89.1853 104.247 89.0743 104.104 88.9907C103.96 88.9071 103.802 88.8525 103.638 88.83C103.474 88.8075 103.307 88.8177 103.146 88.8598C102.986 88.9019 102.835 88.9752 102.703 89.0755C102.571 89.1758 102.46 89.3011 102.377 89.4443C102.293 89.5875 102.238 89.7457 102.216 89.91L102.108 90.684H101.994L102.096 89.91C102.119 89.7461 102.109 89.5793 102.068 89.4192C102.026 89.259 101.953 89.1086 101.853 88.9766C101.754 88.8445 101.629 88.7334 101.486 88.6496C101.344 88.5657 101.186 88.5108 101.022 88.488C100.849 88.4635 100.673 88.4757 100.506 88.524L82.3559 86.01C82.2085 85.9174 82.0426 85.8581 81.8699 85.836C81.706 85.8131 81.5392 85.8228 81.3791 85.8644C81.2189 85.906 81.0685 85.9787 80.9365 86.0785C80.8044 86.1782 80.6933 86.303 80.6095 86.4456C80.5257 86.5883 80.4708 86.7461 80.4479 86.91L80.3399 87.684H80.2199L80.3279 86.91C80.3546 86.7442 80.3478 86.5747 80.308 86.4116C80.2683 86.2485 80.1963 86.0949 80.0963 85.96C79.9963 85.825 79.8704 85.7115 79.7259 85.6259C79.5814 85.5403 79.4213 85.4845 79.2549 85.4617C79.0886 85.4389 78.9193 85.4496 78.7571 85.4931C78.5949 85.5367 78.4431 85.6122 78.3105 85.7153C78.1779 85.8184 78.0673 85.9469 77.9851 86.0933C77.9029 86.2398 77.8508 86.4011 77.8319 86.568L77.7239 87.336H77.6039L77.7119 86.562C77.7563 86.2304 77.6677 85.8946 77.4653 85.6282C77.2629 85.3617 76.9633 85.1862 76.6319 85.14C76.4613 85.1152 76.2874 85.1275 76.1219 85.176L58.0199 82.602C57.425 82.5191 56.8196 82.5541 56.2382 82.7053C55.6569 82.8564 55.111 83.1206 54.6318 83.4828C54.1526 83.845 53.7495 84.298 53.4454 84.8161C53.1414 85.3341 52.9424 85.907 52.8599 86.502L50.9399 100.338C50.7741 101.54 51.0924 102.759 51.8248 103.727C52.5573 104.694 53.6439 105.331 54.8459 105.498L72.7859 107.988C72.9679 108.139 73.188 108.236 73.4219 108.27C73.5858 108.293 73.7526 108.283 73.9128 108.242C74.0729 108.2 74.2233 108.127 74.3554 108.028C74.4874 107.928 74.5985 107.803 74.6823 107.66C74.7662 107.518 74.8211 107.36 74.8439 107.196L74.9999 106.062H75.1199L74.9639 107.196C74.9373 107.362 74.944 107.531 74.9838 107.694C75.0236 107.858 75.0956 108.011 75.1955 108.146C75.2955 108.281 75.4214 108.395 75.5659 108.48C75.7104 108.566 75.8705 108.622 76.0369 108.644C76.2033 108.667 76.3725 108.656 76.5347 108.613C76.6969 108.569 76.8487 108.494 76.9813 108.391C77.1139 108.288 77.2245 108.159 77.3067 108.013C77.3889 107.866 77.441 107.705 77.4599 107.538L77.6159 106.41H77.7359L77.5799 107.538C77.5571 107.702 77.5667 107.869 77.6083 108.029C77.6499 108.189 77.7227 108.339 77.8224 108.471C77.9221 108.604 78.0469 108.715 78.1896 108.798C78.3322 108.882 78.49 108.937 78.6539 108.96C78.8889 108.995 79.1291 108.96 79.3439 108.858L97.1999 111.366C97.3705 111.513 97.578 111.61 97.7999 111.648C97.9639 111.672 98.131 111.663 98.2915 111.621C98.4519 111.58 98.6027 111.507 98.7349 111.408C98.8671 111.308 98.9782 111.183 99.0618 111.04C99.1454 110.896 99.1998 110.738 99.2219 110.574L99.3839 109.446H99.4979L99.3419 110.58C99.3195 110.744 99.3296 110.911 99.3717 111.072C99.4138 111.232 99.4871 111.383 99.5874 111.515C99.6877 111.647 99.813 111.758 99.9562 111.841C100.099 111.925 100.258 111.98 100.422 112.002C100.586 112.024 100.753 112.014 100.914 111.972C101.074 111.93 101.225 111.857 101.357 111.757C101.489 111.656 101.6 111.531 101.683 111.388C101.767 111.245 101.821 111.086 101.844 110.922L102 109.8H102.12L101.958 110.928C101.913 111.26 102.002 111.595 102.205 111.862C102.407 112.128 102.707 112.304 103.038 112.35C103.273 112.385 103.513 112.35 103.728 112.248L115.902 113.934C116.497 114.017 117.102 113.982 117.684 113.831C118.265 113.68 118.811 113.415 119.29 113.053C119.769 112.691 120.172 112.238 120.476 111.72C120.78 111.202 120.979 110.629 121.062 110.034L122.982 96.198C123.139 95.0008 122.818 93.7899 122.088 92.8282C121.358 91.8666 120.277 91.2319 119.082 91.062Z" fill="white"/>
</mask>
<g mask="url(#mask1_1_2476)">
<path d="M51.666 99.336L94.266 88.932L116.466 91.932C117.765 92.1068 118.942 92.7886 119.741 93.8284C120.539 94.8683 120.893 96.1818 120.726 97.482L119.346 108.132C119.262 108.787 119.047 109.418 118.715 109.989C118.384 110.559 117.941 111.058 117.414 111.455C116.887 111.853 116.286 112.141 115.646 112.303C115.006 112.464 114.341 112.497 113.688 112.398L57.204 103.83C55.9645 103.642 54.7978 103.126 53.8242 102.336C52.8507 101.546 52.1056 100.51 51.666 99.336Z" fill="#5DCCFC"/>
<path d="M63.4199 101.448C63.4199 101.448 66.3179 99.84 68.2199 98.874C70.1219 97.908 77.5619 97.584 77.5619 97.584L84.0059 88.884" stroke="#263238" stroke-linecap="round" stroke-linejoin="round"/>
<path d="M96.276 92.754L91.446 104.028" stroke="#263238" stroke-linecap="round" stroke-linejoin="round"/>
</g>
<path d="M119.082 91.062L106.74 89.352C106.594 89.2602 106.431 89.2009 106.26 89.178C105.928 89.1318 105.592 89.2188 105.324 89.4201C105.056 89.6214 104.879 89.9205 104.832 90.252L104.73 91.026H104.61L104.718 90.252C104.74 90.0877 104.73 89.9206 104.688 89.7603C104.646 89.5999 104.573 89.4494 104.472 89.3173C104.372 89.1853 104.247 89.0743 104.104 88.9907C103.96 88.9071 103.802 88.8525 103.638 88.83C103.474 88.8075 103.307 88.8177 103.146 88.8598C102.986 88.9019 102.835 88.9752 102.703 89.0755C102.571 89.1758 102.46 89.3011 102.377 89.4443C102.293 89.5875 102.238 89.7457 102.216 89.91L102.108 90.684H101.994L102.096 89.91C102.119 89.7461 102.109 89.5793 102.068 89.4192C102.026 89.259 101.953 89.1086 101.853 88.9766C101.754 88.8445 101.629 88.7334 101.486 88.6496C101.344 88.5657 101.186 88.5108 101.022 88.488C100.849 88.4635 100.673 88.4757 100.506 88.524L82.3559 86.01C82.2085 85.9174 82.0426 85.8581 81.8699 85.836C81.706 85.8131 81.5392 85.8228 81.3791 85.8644C81.2189 85.906 81.0685 85.9787 80.9365 86.0785C80.8044 86.1782 80.6933 86.303 80.6095 86.4456C80.5257 86.5883 80.4708 86.7461 80.4479 86.91L80.3399 87.684H80.2199L80.3279 86.91C80.3546 86.7442 80.3478 86.5747 80.308 86.4116C80.2683 86.2485 80.1963 86.0949 80.0963 85.96C79.9963 85.825 79.8704 85.7115 79.7259 85.6259C79.5814 85.5403 79.4213 85.4845 79.2549 85.4617C79.0886 85.4389 78.9193 85.4496 78.7571 85.4931C78.5949 85.5367 78.4431 85.6122 78.3105 85.7153C78.1779 85.8184 78.0673 85.9469 77.9851 86.0933C77.9029 86.2398 77.8508 86.4011 77.8319 86.568L77.7239 87.336H77.6039L77.7119 86.562C77.7564 86.2304 77.6677 85.8946 77.4653 85.6282C77.2629 85.3617 76.9633 85.1862 76.6319 85.14C76.4613 85.1152 76.2874 85.1275 76.1219 85.176L58.0199 82.602C57.425 82.5191 56.8196 82.5541 56.2382 82.7053C55.6569 82.8564 55.111 83.1206 54.6318 83.4828C54.1526 83.845 53.7495 84.298 53.4454 84.8161C53.1414 85.3341 52.9424 85.907 52.8599 86.502L50.9399 100.338C50.7741 101.54 51.0924 102.759 51.8248 103.727C52.5573 104.694 53.6439 105.331 54.8459 105.498L72.7859 107.988C72.9679 108.139 73.188 108.236 73.4219 108.27C73.5858 108.293 73.7526 108.283 73.9128 108.242C74.0729 108.2 74.2233 108.127 74.3554 108.028C74.4874 107.928 74.5985 107.803 74.6823 107.66C74.7662 107.518 74.8211 107.36 74.8439 107.196L74.9999 106.062H75.1199L74.9639 107.196C74.9373 107.362 74.944 107.531 74.9838 107.694C75.0236 107.858 75.0956 108.011 75.1955 108.146C75.2955 108.281 75.4214 108.395 75.5659 108.48C75.7104 108.566 75.8705 108.622 76.0369 108.644C76.2033 108.667 76.3725 108.656 76.5347 108.613C76.6969 108.569 76.8487 108.494 76.9813 108.391C77.1139 108.288 77.2245 108.159 77.3067 108.013C77.3889 107.866 77.441 107.705 77.4599 107.538L77.6159 106.41H77.7359L77.5799 107.538C77.5571 107.702 77.5667 107.869 77.6083 108.029C77.6499 108.189 77.7227 108.339 77.8224 108.471C77.9221 108.604 78.0469 108.715 78.1896 108.798C78.3322 108.882 78.49 108.937 78.6539 108.96C78.8889 108.995 79.1291 108.96 79.3439 108.858L97.1999 111.366C97.3705 111.513 97.578 111.61 97.7999 111.648C97.9639 111.672 98.131 111.663 98.2915 111.621C98.4519 111.58 98.6027 111.507 98.7349 111.408C98.8671 111.308 98.9782 111.183 99.0618 111.04C99.1454 110.896 99.1998 110.738 99.2219 110.574L99.3839 109.446H99.4979L99.3419 110.58C99.3195 110.744 99.3296 110.911 99.3717 111.072C99.4138 111.232 99.4871 111.383 99.5874 111.515C99.6877 111.647 99.813 111.758 99.9562 111.841C100.099 111.925 100.258 111.98 100.422 112.002C100.586 112.024 100.753 112.014 100.914 111.972C101.074 111.93 101.225 111.857 101.357 111.757C101.489 111.656 101.6 111.531 101.683 111.388C101.767 111.245 101.821 111.086 101.844 110.922L102 109.8H102.12L101.958 110.928C101.913 111.26 102.002 111.595 102.205 111.862C102.407 112.128 102.707 112.304 103.038 112.35C103.273 112.385 103.513 112.35 103.728 112.248L115.902 113.934C116.497 114.017 117.102 113.982 117.684 113.831C118.265 113.68 118.811 113.415 119.29 113.053C119.769 112.691 120.172 112.238 120.476 111.72C120.78 111.202 120.979 110.629 121.062 110.034L122.982 96.198C123.139 95.0008 122.818 93.7899 122.088 92.8282C121.358 91.8666 120.277 91.2319 119.082 91.062Z" stroke="#263238" stroke-linecap="round" stroke-linejoin="round"/>
<path d="M104.61 91.008L102.006 109.806" stroke="#263238" stroke-linecap="round" stroke-linejoin="round"/>
<path d="M102.108 90.666L99.5039 109.458" stroke="#263238" stroke-linecap="round" stroke-linejoin="round"/>
<path d="M80.22 87.63L77.616 106.428" stroke="#263238" stroke-linecap="round" stroke-linejoin="round"/>
<path d="M77.7239 87.282L75.1199 106.08" stroke="#263238" stroke-linecap="round" stroke-linejoin="round"/>
<path d="M124.008 99.762L123.006 107.016" stroke="#263238" stroke-linecap="round" stroke-linejoin="round"/>
<path d="M125.436 99.96L124.428 107.214" stroke="#263238" stroke-linecap="round" stroke-linejoin="round"/>
<path d="M126.864 100.158L125.856 107.412" stroke="#263238" stroke-linecap="round" stroke-linejoin="round"/>
<path d="M111.6 189.924C112.326 196.188 116.898 200.52 118.344 202.206C119.543 203.791 120.592 205.484 121.476 207.264C121.829 209.507 121.887 211.786 121.65 214.044C124.11 214.284 128.31 217.956 151.098 218.844C165.33 219.39 182.898 215.31 187.38 213.744C187.23 213.474 187.092 213.24 186.978 213.066C184.806 209.694 186.978 205.866 186.978 205.866C188.682 200.916 190.013 195.846 190.962 190.698C187.68 190.62 177.726 189.654 173.73 181.062C169.68 172.35 177.222 152.04 179.73 145.824C177.234 145.53 175.332 145.224 174.474 144.702L174.36 144.624C172.668 150.432 167.67 166.698 163.152 172.392C157.614 179.376 147.258 181.062 139.074 177.69C130.89 174.318 129.198 167.334 130.164 162.522C130.926 158.706 136.98 147.03 139.458 142.344C138.336 143.046 136.89 143.292 135.012 143.322L117.402 174.078C117.402 174.078 110.88 183.666 111.6 189.924Z" fill="#263238" stroke="#263238" stroke-linecap="round" stroke-linejoin="round"/>
<path d="M144.246 205.8C152.96 209.42 162.557 210.352 171.804 208.476" stroke="#828282" stroke-linecap="round" stroke-linejoin="round"/>
<path d="M136.89 201.726C137.679 202.319 138.505 202.862 139.362 203.352" stroke="#828282" stroke-linecap="round" stroke-linejoin="round"/>
<path d="M155.076 58.128C152.414 58.2773 149.811 58.976 147.432 60.18C143.922 62.022 140.04 65.538 142.188 71.688C145.788 82.044 157.836 95.526 161.934 96.732C164.418 97.4718 166.828 98.4399 169.134 99.624C169.134 99.624 172.734 106.362 168.168 121.056C163.602 135.75 158.298 142.968 162.63 153.324C166.962 163.68 181.17 169.938 197.79 166.086C214.41 162.234 218.982 152.598 215.85 141.522C212.718 130.446 204.288 129.24 204.528 122.736C204.768 116.232 211.272 117.198 206.214 108.774C201.156 100.35 195.72 101.112 195.72 96.534C195.72 91.956 199.476 82.044 194.898 74.094C190.59 66.6 173.076 56.88 155.076 58.128Z" fill="#263238"/>
<mask id="mask2_1_2476" style="mask-type:luminance" maskUnits="userSpaceOnUse" x="141" y="58" width="76" height="110">
<path d="M155.076 58.128C152.414 58.2773 149.811 58.976 147.432 60.18C143.922 62.022 140.04 65.538 142.188 71.688C145.788 82.044 157.836 95.526 161.934 96.732C164.418 97.4718 166.828 98.4399 169.134 99.624C169.134 99.624 172.734 106.362 168.168 121.056C163.602 135.75 158.298 142.968 162.63 153.324C166.962 163.68 181.17 169.938 197.79 166.086C214.41 162.234 218.982 152.598 215.85 141.522C212.718 130.446 204.288 129.24 204.528 122.736C204.768 116.232 211.272 117.198 206.214 108.774C201.156 100.35 195.72 101.112 195.72 96.534C195.72 91.956 199.476 82.044 194.898 74.094C190.59 66.6 173.076 56.88 155.076 58.128Z" fill="white"/>
</mask>
<g mask="url(#mask2_1_2476)">
<path d="M141.852 62.07C141.852 62.07 150.144 80.388 165.186 89.67C180.228 98.952 196.8 96.78 196.8 96.78" stroke="#828282" stroke-linecap="round" stroke-linejoin="round"/>
<path d="M151.686 56.67C151.686 56.67 168.654 90.222 182.736 93.498C196.818 96.774 198.336 95.238 198.336 95.238" stroke="#828282" stroke-linecap="round" stroke-linejoin="round"/>
<path d="M171.966 66.906C175.908 75.606 181.974 87.126 187.566 90.03C196.824 94.83 200.484 91.572 200.484 91.572" stroke="#828282" stroke-linecap="round" stroke-linejoin="round"/>
<path d="M167.694 56.67C167.694 56.67 168.684 59.34 170.328 63.18" stroke="#828282" stroke-linecap="round" stroke-linejoin="round"/>
<path d="M174.444 94.272C174.444 94.272 184.47 104.106 183.312 115.674C182.154 127.242 176.4 132 174.456 144.654C172.512 157.308 180.612 166.392 190.254 166.002C199.896 165.612 198.354 154.602 192.18 153.084C186.006 151.566 184.854 157.518 187.554 159.45C190.254 161.382 191.796 158.676 191.796 158.1" stroke="#828282" stroke-linecap="round" stroke-linejoin="round"/>
<path d="M183.12 96.6C183.12 96.6 190.254 102.768 190.254 114.528C190.254 126.288 186.786 128.22 188.328 134.97C189.87 141.72 198.528 139.986 202.212 148.47C205.896 156.954 203.754 163.512 199.896 166.404" stroke="#828282" stroke-linecap="round" stroke-linejoin="round"/>
<path d="M190.446 97.164C190.446 97.164 199.896 103.914 201.63 112.974C203.364 122.034 192.57 119.916 199.512 132.066C206.454 144.216 221.298 146.142 214.164 158.676" stroke="#828282" stroke-linecap="round" stroke-linejoin="round"/>
</g>
<path d="M155.076 58.128C152.414 58.2773 149.811 58.976 147.432 60.18C143.922 62.022 140.04 65.538 142.188 71.688C145.788 82.044 157.836 95.526 161.934 96.732C164.418 97.4718 166.828 98.4399 169.134 99.624C169.134 99.624 172.734 106.362 168.168 121.056C163.602 135.75 158.298 142.968 162.63 153.324C166.962 163.68 181.17 169.938 197.79 166.086C214.41 162.234 218.982 152.598 215.85 141.522C212.718 130.446 204.288 129.24 204.528 122.736C204.768 116.232 211.272 117.198 206.214 108.774C201.156 100.35 195.72 101.112 195.72 96.534C195.72 91.956 199.476 82.044 194.898 74.094C190.59 66.6 173.076 56.88 155.076 58.128Z" stroke="#263238" stroke-linecap="round" stroke-linejoin="round"/>
<path d="M144.6 120.6C144.6 120.6 144.462 122.112 144.186 124.476L158.082 118.914L144.6 120.6Z" fill="#263238" stroke="#263238" stroke-linecap="round" stroke-linejoin="round"/>
<path d="M206.904 281.1C207.156 275.772 207.228 263.502 203.592 252.054C202.302 247.992 200.67 243.552 198.924 239.16C192.756 241.824 178.674 246.66 155.19 248.202C131.25 249.774 116.19 243.108 109.734 239.328C108.81 242.016 107.97 244.83 107.268 247.728C104.442 259.404 105.3 274.908 105.81 281.112" fill="#5DCCFC"/>
<path d="M206.904 281.1C207.156 275.772 207.228 263.502 203.592 252.054C202.302 247.992 200.67 243.552 198.924 239.16C192.756 241.824 178.674 246.66 155.19 248.202C131.25 249.774 116.19 243.108 109.734 239.328C108.81 242.016 107.97 244.83 107.268 247.728C104.442 259.404 105.3 274.908 105.81 281.112" stroke="#263238" stroke-linecap="round" stroke-linejoin="round"/>
<path d="M170.076 243.072L152.712 272.55" stroke="#263238" stroke-linecap="round" stroke-linejoin="round"/>
<path d="M117.6 239.844C117.6 239.844 120.426 250.746 126.888 260.034" stroke="#263238" stroke-linecap="round" stroke-linejoin="round"/>
<path d="M228.468 197.328C228.468 197.328 207.468 225.564 203.832 225.804C200.196 226.044 191.31 217.134 190.59 217.62C189.87 218.106 177.828 233.754 175.896 236.16C173.964 238.566 178.296 236.64 178.296 236.64C178.296 236.64 176.85 240.492 178.296 240.732C179.742 240.972 182.148 239.292 182.148 239.292C182.148 239.292 181.668 242.664 183.108 242.178C184.548 241.692 187.446 239.292 187.446 239.292C187.446 239.292 184.794 242.664 186.966 242.178C189.138 241.692 196.356 236.178 196.356 236.178C196.356 236.178 199.242 241.716 205.266 239.55C211.29 237.384 250.032 206.628 250.266 203.016C250.5 199.404 243.546 192.048 243.546 192.048" fill="#CCCCCC"/>
<mask id="mask3_1_2476" style="mask-type:luminance" maskUnits="userSpaceOnUse" x="175" y="192" width="76" height="51">
<path d="M228.468 197.328C228.468 197.328 207.468 225.564 203.832 225.804C200.196 226.044 191.31 217.134 190.59 217.62C189.87 218.106 177.828 233.754 175.896 236.16C173.964 238.566 178.296 236.64 178.296 236.64C178.296 236.64 176.85 240.492 178.296 240.732C179.742 240.972 182.148 239.292 182.148 239.292C182.148 239.292 181.668 242.664 183.108 242.178C184.548 241.692 187.446 239.292 187.446 239.292C187.446 239.292 184.794 242.664 186.966 242.178C189.138 241.692 196.356 236.178 196.356 236.178C196.356 236.178 199.242 241.716 205.266 239.55C211.29 237.384 250.032 206.628 250.266 203.016C250.5 199.404 243.546 192.048 243.546 192.048" fill="white"/>
</mask>
<g mask="url(#mask3_1_2476)">
<path opacity="0.2" d="M250.284 202.998C250.53 199.398 242.898 191.208 242.898 191.208L237.306 193.578L236.58 193.962C236.58 193.962 242.544 197.874 239.268 204.42C235.992 210.966 212.106 233.22 207.528 235.506C202.95 237.792 199.674 234.198 197.052 234.522C195.678 234.696 193.206 237.318 191.13 239.922C193.71 238.212 196.368 236.172 196.368 236.172C196.368 236.172 199.254 241.71 205.278 239.544C211.302 237.378 250.044 206.61 250.284 202.998Z" fill="black"/>
</g>
<path d="M228.468 197.328C228.468 197.328 207.468 225.564 203.832 225.804C200.196 226.044 191.31 217.134 190.59 217.62C189.87 218.106 177.828 233.754 175.896 236.16C173.964 238.566 178.296 236.64 178.296 236.64C178.296 236.64 176.85 240.492 178.296 240.732C179.742 240.972 182.148 239.292 182.148 239.292C182.148 239.292 181.668 242.664 183.108 242.178C184.548 241.692 187.446 239.292 187.446 239.292C187.446 239.292 184.794 242.664 186.966 242.178C189.138 241.692 196.356 236.178 196.356 236.178C196.356 236.178 199.242 241.716 205.266 239.55C211.29 237.384 250.032 206.628 250.266 203.016C250.5 199.404 243.546 192.048 243.546 192.048" stroke="#263238" stroke-linecap="round" stroke-linejoin="round"/>
<path d="M187.458 239.292L194.922 231.582" stroke="#263238" stroke-linecap="round" stroke-linejoin="round"/>
<path d="M182.16 239.292L191.55 228.696" stroke="#263238" stroke-linecap="round" stroke-linejoin="round"/>
<path d="M178.308 236.64L188.418 225.084" stroke="#263238" stroke-linecap="round" stroke-linejoin="round"/>
<path d="M70.6678 120.81C70.6678 120.81 77.8679 114.072 83.4299 114.072C88.9919 114.072 90.8939 114.072 91.8299 111.9C92.7659 109.728 99.7798 105.9 100.74 103.5C101.7 101.1 96.4079 101.574 93.2759 103.26C91.4889 104.188 89.8672 105.404 88.4759 106.86C88.4759 106.86 78.8398 104.208 74.5079 104.208C70.1759 104.208 67.0439 109.986 66.7979 112.878" fill="#CCCCCC"/>
<path d="M70.6678 120.81C70.6678 120.81 77.8679 114.072 83.4299 114.072C88.9919 114.072 90.8939 114.072 91.8299 111.9C92.7659 109.728 99.7798 105.9 100.74 103.5C101.7 101.1 96.4079 101.574 93.2759 103.26C91.4889 104.188 89.8672 105.404 88.4759 106.86C88.4759 106.86 78.8398 104.208 74.5079 104.208C70.1759 104.208 67.0439 109.986 66.7979 112.878" stroke="#263238" stroke-linecap="round" stroke-linejoin="round"/>
<path d="M162.654 101.064C162.654 101.064 166.254 89.508 170.358 92.154C174.462 94.8 173.73 102.27 170.598 105.642C167.466 109.014 165.798 108.534 164.1 106.602" fill="#A6A6A6"/>
<path d="M162.654 101.064C162.654 101.064 166.254 89.508 170.358 92.154C174.462 94.8 173.73 102.27 170.598 105.642C167.466 109.014 165.798 108.534 164.1 106.602" stroke="#263238" stroke-linecap="round" stroke-linejoin="round"/>
<path d="M144.6 223.08C144.595 223.287 144.53 223.488 144.412 223.657C144.294 223.827 144.129 223.959 143.937 224.036C143.745 224.113 143.535 224.132 143.332 224.09C143.13 224.049 142.944 223.949 142.798 223.802C142.651 223.656 142.551 223.47 142.51 223.268C142.468 223.065 142.487 222.855 142.564 222.663C142.641 222.471 142.773 222.306 142.943 222.188C143.112 222.07 143.313 222.005 143.52 222C143.663 221.997 143.805 222.022 143.937 222.076C144.07 222.129 144.19 222.208 144.291 222.309C144.392 222.41 144.471 222.53 144.524 222.663C144.578 222.795 144.603 222.937 144.6 223.08Z" fill="white" stroke="#263238" stroke-linecap="round" stroke-linejoin="round"/>
</svg>
