<svg width="108" height="179" viewBox="0 0 108 179" fill="none" xmlns="http://www.w3.org/2000/svg">
<g clip-path="url(#clip0_1_2270)" filter="url(#filter0_d_1_2270)">
<path d="M97.5133 79.8676C97.2005 80.9944 96.1057 81.7231 95.0109 82.4969C92.6257 84.1722 89.7909 85.4268 86.9073 86.5461C66.7118 94.3816 41.961 95.8691 21.3354 88.7248C17.787 87.4927 14.3462 85.9977 11.4234 83.9994C10.2699 83.2106 7.33737 81.3926 7.04412 80.1455C6.68244 78.6806 10.7098 79.0187 12.0197 78.7783C12.1663 78.7482 12.3227 78.7257 12.4693 78.6956C14.7567 78.2899 17.1028 78.042 19.439 77.8768C35.1477 76.7349 51.1692 79.0562 66.6824 76.81C74.2093 75.7207 81.658 73.5496 89.2826 74.083C91.3452 74.2257 93.4469 74.5863 95.1086 75.5329C95.2357 75.608 95.353 75.6756 95.4703 75.7658C96.9366 76.7574 97.9043 78.4252 97.5035 79.86L97.5133 79.8676Z" fill="#75B8EB"/>
<g style="mix-blend-mode:multiply" opacity="0.5">
<path d="M97.5133 79.8676C97.2005 80.9944 96.1057 81.7231 95.0109 82.4969C92.6257 84.1722 89.7909 85.4268 86.9073 86.5461C66.7118 94.3816 41.961 95.8691 21.3354 88.7247C17.787 87.4927 14.3462 85.9977 11.4234 83.9994C10.2699 83.2106 7.33737 81.3926 7.04412 80.1455C6.68244 78.6806 10.7098 79.0186 12.0197 78.7782C12.1663 78.7482 12.3227 78.7257 12.4693 78.6956C13.2025 78.7933 13.9356 78.8834 14.6297 78.9435C18.2074 79.2666 21.7753 79.5746 25.3432 79.8676C29.3608 80.1981 33.3784 80.5061 37.4058 80.7766C56.8877 82.0837 77.3569 82.4218 95.0011 75.9385C95.1575 75.8859 95.3139 75.8259 95.4801 75.7582C96.9464 76.7499 97.9141 78.4176 97.5133 79.8525V79.8676Z" fill="#75B8EB"/>
</g>
<path d="M97.5721 79.4995L95.9396 97.2364L90.9543 151.274C90.6806 154.263 88.0608 156.818 84.356 157.757C56.6923 164.796 32.5965 160.814 20.0647 157.569C16.399 156.615 13.8477 154.068 13.5838 151.108L7.64048 86.6588L7.03442 80.153C9.24361 80.3484 11.4626 80.7916 13.6522 80.9719C17.7773 81.2949 21.9318 81.4452 26.0471 81.7006C33.8086 82.1814 41.5408 82.9251 49.312 83.1806C63.5936 83.6463 78.0706 83.1355 92.0393 80.6113C93.8966 80.2732 95.7343 79.9051 97.5623 79.4995H97.5721Z" fill="#68CEFF"/>
<g style="mix-blend-mode:multiply" opacity="0.5">
<path d="M95.9395 97.2364L90.9542 151.274C90.6805 154.263 88.0607 156.818 84.3559 157.757C56.6922 164.796 32.5964 160.814 20.0646 157.569C16.3989 156.615 13.8476 154.068 13.5837 151.108L7.64038 86.6589C10.1917 94.299 12.2249 102.044 13.7108 109.85C14.9131 116.153 15.7831 122.508 17.9239 128.661C20.0744 134.806 23.6032 140.824 29.439 145.346C35.265 149.869 43.6423 152.723 51.8535 151.89C58.2073 151.243 63.9551 148.479 68.3833 144.918C72.8114 141.357 76.0666 137.037 78.9894 132.658C86.4869 121.442 92.1858 109.519 95.9395 97.2439V97.2364Z" fill="#68CEFF"/>
</g>
<g style="mix-blend-mode:screen" opacity="0.5">
<path d="M59.6151 85.4869C49.3317 85.532 39.0775 84.7882 28.8625 83.8642C25.3434 83.5487 21.7657 83.2031 18.2759 83.6839C16.5848 83.9168 14.8449 84.3826 13.7207 85.3817C12.5477 86.4185 12.2056 87.8909 12.4402 89.2506C12.6846 90.6104 13.447 91.88 14.2975 93.0895C17.7481 98.0102 22.8214 102.405 29.3805 104.831C34.5516 106.747 40.3678 107.356 46.1059 107.581C51.0716 107.769 56.145 107.671 60.8859 106.529C66.7315 105.117 71.7559 102.18 76.2427 98.9643C80.7295 95.7489 84.796 92.1955 89.4978 89.168C90.7882 88.3416 92.1469 87.5303 93.0169 86.426C93.6914 85.5846 94.6982 82.6322 92.4402 82.6322C91.2183 82.6322 89.8106 83.0529 88.6083 83.2407C87.3082 83.436 85.9983 83.6238 84.6885 83.7966C79.3512 84.4953 73.9749 84.9836 68.579 85.254C65.5975 85.4043 62.6161 85.4794 59.6249 85.4944L59.6151 85.4869Z" fill="#9CF1FF"/>
</g>
<g style="mix-blend-mode:screen" opacity="0.5">
<path d="M31.7167 85.5395C28.6571 85.2766 25.4704 85.0061 22.5574 85.7724C21.8047 85.9752 20.9738 86.3508 20.9152 86.9593C20.8565 87.5904 21.6483 88.0637 22.3619 88.3792C28.0413 90.9109 34.5809 92.173 41.1302 92.496C47.6796 92.8191 54.2681 92.2256 60.7001 91.2264C64.1312 90.693 67.5916 90.0244 70.6708 88.7173C71.443 88.3867 73.1537 87.628 71.7559 87.0495C70.6024 86.5762 68.9895 86.779 67.7578 86.8391C60.0256 87.2073 52.2739 86.9894 44.5613 86.5161C40.27 86.2532 35.9885 85.9076 31.7167 85.532V85.5395Z" fill="#9CF1FF"/>
</g>
<g style="mix-blend-mode:screen" opacity="0.5">
<path d="M76.6434 86.4936C76.2231 86.6288 75.8028 86.7941 75.5095 87.0645C75.2163 87.335 75.0794 87.7331 75.2945 88.0412C75.5682 88.4318 76.2426 88.522 76.8194 88.5445C77.6503 88.5745 78.4909 88.5745 79.3316 88.537C80.749 88.4694 82.1664 88.2966 83.4958 87.921C84.2778 87.7031 86.3306 87.1397 86.5261 86.4034C86.8389 85.1639 82.4988 85.4644 81.6972 85.5395C79.9768 85.7048 78.2466 85.9752 76.6434 86.5011V86.4936Z" fill="#9CF1FF"/>
</g>
<path opacity="0.19" d="M52.0001 1.87451C24.6101 1.87451 2.40088 6.8106 2.40088 12.8994C2.40088 13.0078 2.40088 13.1162 2.42043 13.2147L11.5798 152.864L12.1076 160.795C12.1076 160.795 12.6062 165.721 14.9522 167.238C15.0988 167.347 15.265 167.426 15.4312 167.495C16.9072 168.096 36.7215 170.47 52.0099 170.165C67.2982 170.47 87.1223 168.096 88.5886 167.495C88.9893 167.337 89.3412 167.081 89.654 166.756C91.5015 164.874 91.9219 160.785 91.9219 160.785L92.4009 153.474L101.58 13.2147C101.599 13.1063 101.599 12.998 101.599 12.8994C101.609 6.8106 79.3999 1.87451 52.0001 1.87451Z" fill="#9CCAFF"/>
<path opacity="0.33" d="M101.521 14.2295L92.4987 151.819L92.3911 153.484L91.9121 160.795C91.9121 160.795 91.9121 160.815 91.9121 160.844C91.9121 160.864 91.9121 160.884 91.9121 160.903C91.9121 160.933 91.9121 160.953 91.9121 160.992C91.9121 161.021 91.9121 161.061 91.8926 161.11C91.8926 161.14 91.8926 161.179 91.873 161.219C91.873 161.278 91.8535 161.327 91.8437 161.396C91.8437 161.435 91.8242 161.485 91.8242 161.534C91.8242 161.603 91.8046 161.682 91.7851 161.76C91.7851 161.81 91.7655 161.859 91.7655 161.908C91.746 161.997 91.7362 162.076 91.7069 162.174C91.7069 162.204 91.6873 162.243 91.6873 162.283C91.6482 162.48 91.5896 162.687 91.5407 162.903C91.5407 162.962 91.5211 163.022 91.5016 163.081C91.482 163.179 91.4429 163.268 91.4136 163.376C91.4136 163.406 91.3941 163.445 91.3843 163.485C91.3843 163.524 91.3647 163.563 91.355 163.603C91.3256 163.701 91.2963 163.79 91.2572 163.898C91.2279 163.977 91.1986 164.056 91.1692 164.145C91.1399 164.243 91.1008 164.332 91.0617 164.421C91.0226 164.509 90.9933 164.598 90.9542 164.696C90.9249 164.785 90.8857 164.874 90.8466 164.962L90.7 165.248C90.6609 165.327 90.6316 165.396 90.5925 165.485C90.5045 165.652 90.4068 165.81 90.309 165.967C90.2895 165.997 90.2699 166.027 90.2504 166.056C90.1624 166.184 90.0646 166.312 89.9767 166.421C89.9376 166.47 89.8985 166.519 89.8594 166.559C89.7909 166.628 89.7421 166.706 89.6736 166.765V166.746C89.3608 167.061 89.0187 167.337 88.6081 167.495C87.1419 168.096 67.3178 170.47 52.0294 170.165C36.7411 170.47 16.9268 168.096 15.4508 167.495C14.9913 167.307 14.5905 166.982 14.2484 166.588C14.2289 166.568 14.1898 166.529 14.1702 166.509C14.0822 166.401 14.004 166.283 13.9161 166.174C13.8867 166.125 13.8574 166.086 13.8281 166.046C13.7499 165.938 13.6814 165.81 13.6032 165.692C13.5837 165.632 13.5446 165.583 13.5153 165.544C13.4566 165.426 13.3882 165.297 13.3295 165.179C13.31 165.12 13.2807 165.071 13.2513 165.012C13.1927 164.884 13.1438 164.756 13.0949 164.627C13.0754 164.568 13.0461 164.519 13.0265 164.46L12.8799 164.076C12.8603 164.017 12.8408 163.958 12.8212 163.898C12.7724 163.77 12.7333 163.642 12.7039 163.524C12.6844 163.465 12.6648 163.406 12.6453 163.347C12.6257 163.288 12.616 163.228 12.5964 163.169C12.5769 163.1 12.5573 163.031 12.5475 162.982C12.528 162.933 12.5182 162.874 12.4987 162.824C12.4791 162.706 12.44 162.588 12.4205 162.48C12.4205 162.43 12.4009 162.381 12.3911 162.332C12.3716 162.223 12.3422 162.115 12.3325 162.017C12.3129 161.967 12.3129 161.928 12.3032 161.889C12.2836 161.79 12.2738 161.701 12.2543 161.613C12.2543 161.573 12.2347 161.544 12.2347 161.504C12.2152 161.425 12.2054 161.347 12.1956 161.278C12.1956 161.238 12.1956 161.219 12.1761 161.179C12.1761 161.12 12.1565 161.061 12.1565 161.012C12.1565 160.982 12.1565 160.962 12.1565 160.933C12.1565 160.913 12.1565 160.874 12.1565 160.854C12.1565 160.815 12.1565 160.795 12.1565 160.795L11.6287 152.864L11.5309 151.396L2.44 13.5891C2.58663 14.0522 2.80168 14.4955 3.09494 14.8896C3.12426 14.9192 3.15359 14.9586 3.19269 14.998L3.21224 15.0177C3.4664 15.2936 3.73032 15.5498 3.98448 15.8256C3.98448 15.8256 3.98448 15.8256 4.00403 15.8453C4.00403 15.8453 4.02358 15.8453 4.02358 15.865C4.04313 15.865 4.16043 15.9439 4.30706 16.0424L13.5837 147.819C13.8574 151.701 16.4087 155.041 20.0646 156.292C32.5964 160.549 56.6922 165.77 84.3559 156.539C88.0607 155.307 90.6707 151.957 90.9542 148.036L100.299 15.1852C100.661 14.9783 101.013 14.7418 101.306 14.4266C101.375 14.3675 101.453 14.2985 101.521 14.2394V14.2295Z" fill="#A7C0FF"/>
<path opacity="0.33" d="M45.92 165.829C44.6003 166.706 42.9483 166.825 41.3745 166.894C35.0597 167.15 28.7254 166.943 22.44 166.283C19.5857 165.977 16.6629 165.563 14.1311 164.194C13.5837 163.898 13.0656 163.554 12.5671 163.179C12.5475 163.11 12.528 163.041 12.5182 162.992C12.4987 162.943 12.4889 162.884 12.4693 162.834C12.4498 162.716 12.4107 162.598 12.3911 162.489C12.3911 162.44 12.3716 162.391 12.3618 162.342C12.3423 162.233 12.3129 162.125 12.3032 162.026C12.2836 161.977 12.2836 161.938 12.2738 161.898C12.2543 161.8 12.2445 161.711 12.2249 161.622C12.2249 161.583 12.2054 161.554 12.2054 161.514C12.1858 161.435 12.1761 161.356 12.1663 161.287C12.1663 161.248 12.1663 161.228 12.1467 161.189C12.1467 161.13 12.1272 161.071 12.1272 161.021C12.1272 160.992 12.1272 160.972 12.1272 160.943C12.1272 160.923 12.1272 160.884 12.1272 160.864C12.1272 160.824 12.1272 160.805 12.1272 160.805L11.5993 152.873L11.5016 151.405C11.8437 151.809 12.1956 152.194 12.5769 152.568C15.9591 155.957 20.3188 158.253 24.8056 159.79C31.2181 161.997 38.0119 162.844 44.5808 164.529C45.2553 164.706 46.0861 165.15 45.9297 165.829H45.92Z" fill="#A7FFFF"/>
<path opacity="0.33" d="M92.4987 151.819L92.3911 153.484L91.9122 160.795C91.9122 160.795 91.9122 160.815 91.9122 160.844C91.9122 160.864 91.9122 160.884 91.9122 160.903C91.9122 160.933 91.9122 160.953 91.9122 160.992C91.9122 161.021 91.9122 161.061 91.8926 161.11C91.8926 161.14 91.8926 161.179 91.8731 161.219C91.8731 161.278 91.8535 161.327 91.8437 161.396C91.8437 161.435 91.8242 161.485 91.8242 161.534C91.8242 161.603 91.8046 161.682 91.7851 161.76C91.7851 161.81 91.7655 161.859 91.7655 161.908C91.746 161.997 91.7362 162.076 91.7069 162.174C91.7069 162.204 91.6873 162.243 91.6873 162.283C91.6482 162.48 91.5896 162.687 91.5407 162.903C91.5407 162.962 91.5212 163.022 91.5016 163.081C91.4821 163.179 91.443 163.268 91.4136 163.376C91.4136 163.406 91.3941 163.445 91.3843 163.485C91.0226 163.741 90.6512 163.977 90.2602 164.184C87.7284 165.563 84.8056 165.977 81.9513 166.273C75.6658 166.923 69.3315 167.14 63.007 166.884C61.4332 166.825 59.7812 166.697 58.4615 165.82C58.2954 165.14 59.136 164.696 59.8105 164.519C66.3794 162.834 73.1732 161.987 79.5857 159.78C84.0627 158.233 88.4224 155.947 91.8144 152.558C92.049 152.322 92.2934 152.075 92.5182 151.819H92.4987Z" fill="#A7FFFF"/>
<path d="M101.609 12.8994C101.609 13.0078 101.609 13.1162 101.59 13.2147C100.837 19.1557 78.9307 23.9342 52.0099 23.9342C25.089 23.9342 3.17312 19.1656 2.42043 13.2147C2.40088 13.1063 2.40088 12.998 2.40088 12.8994C2.40088 6.8106 24.6101 1.87451 52.0001 1.87451C79.3901 1.87451 101.599 6.8106 101.599 12.8994H101.609Z" stroke="white" stroke-width="0.81" stroke-miterlimit="10"/>
<path d="M52.0001 1.87451C24.6101 1.87451 2.40088 6.8106 2.40088 12.8994C2.40088 13.0078 2.40088 13.1162 2.42043 13.2147L11.5798 152.864L12.1076 160.795C12.1076 160.795 12.6062 165.721 14.9522 167.238C15.0988 167.347 15.265 167.426 15.4312 167.495C16.9072 168.096 36.7215 170.47 52.0099 170.165C67.2982 170.47 87.1223 168.096 88.5886 167.495C88.9893 167.337 89.3412 167.081 89.654 166.756C91.5016 164.874 91.9219 160.785 91.9219 160.785L92.4009 153.474L101.58 13.2147C101.599 13.1063 101.599 12.998 101.599 12.8994C101.609 6.8106 79.3999 1.87451 52.0001 1.87451Z" stroke="white" stroke-width="0.81" stroke-miterlimit="10"/>
<path opacity="0.19" d="M96.8388 17.6188L89.3999 152.647C88.2269 154.44 86.4673 155.829 84.3559 156.529C80.6902 157.75 77.0734 158.726 73.5446 159.475L79.8495 22.0228C94.1604 21.5598 96.8388 17.6089 96.8388 17.6089V17.6188Z" fill="#9CCAFF"/>
<path opacity="0.19" d="M30.3579 159.159C27.6501 158.549 25.1868 157.888 22.9874 157.218C21.961 156.903 20.9835 156.598 20.0744 156.282C19.6736 156.145 19.3022 155.987 18.9307 155.8L8.96002 18.3873L14.1311 19.6582L23.1145 21.875L30.3579 159.169V159.159Z" fill="#9CCAFF"/>
<path opacity="0.19" d="M22.9874 157.218C21.961 156.903 20.9835 156.598 20.0744 156.282C19.6736 156.145 19.3022 155.987 18.9307 155.8L8.96002 18.3873L14.1311 19.6582C14.6101 24.8505 20.8466 122.587 22.9874 157.218Z" fill="#9CCAFF"/>
</g>
<defs>
<filter id="filter0_d_1_2270" x="0" y="0" width="108" height="178.588" filterUnits="userSpaceOnUse" color-interpolation-filters="sRGB">
<feFlood flood-opacity="0" result="BackgroundImageFix"/>
<feColorMatrix in="SourceAlpha" type="matrix" values="0 0 0 0 0 0 0 0 0 0 0 0 0 0 0 0 0 0 127 0" result="hardAlpha"/>
<feOffset dx="2" dy="4"/>
<feGaussianBlur stdDeviation="2"/>
<feComposite in2="hardAlpha" operator="out"/>
<feColorMatrix type="matrix" values="0 0 0 0 0 0 0 0 0 0 0 0 0 0 0 0 0 0 0.25 0"/>
<feBlend mode="normal" in2="BackgroundImageFix" result="effect1_dropShadow_1_2270"/>
<feBlend mode="normal" in="SourceGraphic" in2="effect1_dropShadow_1_2270" result="shape"/>
</filter>
<clipPath id="clip0_1_2270">
<rect width="100" height="170.588" fill="white" transform="translate(2)"/>
</clipPath>
</defs>
</svg>
