<svg width="101" height="170" viewBox="0 0 101 170" fill="none" xmlns="http://www.w3.org/2000/svg">
<path d="M96.1124 53.5137C95.7996 54.9915 94.7048 55.9472 93.61 56.962C91.2248 59.1591 88.39 60.8045 85.5064 62.2725C65.3109 72.5486 40.5601 74.4994 19.9345 65.1297C16.3861 63.5139 12.9453 61.5533 10.0225 58.9325C8.86901 57.898 5.93646 55.5137 5.64321 53.8782C5.28153 51.957 9.3089 52.4003 10.6188 52.0851C10.7654 52.0456 10.9218 52.0161 11.0684 51.9767C13.3558 51.4446 15.7019 51.1195 18.0381 50.9028C33.7468 49.4052 49.7683 52.4496 65.2815 49.5037C72.8084 48.0751 80.2571 45.2277 87.8817 45.9273C89.9443 46.1145 92.0459 46.5874 93.7077 47.8288C93.8348 47.9273 93.9521 48.016 94.0694 48.1342C95.5357 49.4347 96.5034 51.622 96.1026 53.5038L96.1124 53.5137Z" fill="#3291D9"/>
<g style="mix-blend-mode:multiply" opacity="0.5">
<path d="M96.1124 53.5137C95.7996 54.9915 94.7048 55.9472 93.61 56.962C91.2248 59.1591 88.39 60.8045 85.5064 62.2725C65.3109 72.5486 40.5601 74.4994 19.9345 65.1297C16.3861 63.5139 12.9453 61.5533 10.0225 58.9325C8.86901 57.898 5.93646 55.5137 5.64321 53.8782C5.28153 51.957 9.3089 52.4003 10.6188 52.085C10.7654 52.0456 10.9218 52.0161 11.0684 51.9767C11.8016 52.1048 12.5347 52.223 13.2287 52.3018C16.8065 52.7255 20.3744 53.1294 23.9423 53.5137C27.9599 53.9472 31.9775 54.3511 36.0049 54.7058C55.4868 56.4201 75.956 56.8635 93.6002 48.3608C93.7566 48.2918 93.913 48.213 94.0792 48.1244C95.5454 49.4249 96.5132 51.6121 96.1124 53.494V53.5137Z" fill="#3291D9"/>
</g>
<path d="M96.1711 53.0309L94.5386 76.2926L89.5533 147.161C89.2796 151.083 86.6598 154.433 82.955 155.664C55.2913 164.896 31.1955 159.674 18.6637 155.418C14.998 154.166 12.4467 150.826 12.1828 146.945L6.23948 62.4203L5.63342 53.888C7.84261 54.1442 10.0616 54.7255 12.2512 54.962C16.3763 55.3856 20.5308 55.5827 24.6461 55.9177C32.4076 56.5482 40.1398 57.5236 47.911 57.8586C62.1926 58.4694 76.6696 57.7995 90.6383 54.489C92.4956 54.0457 94.3333 53.5629 96.1613 53.0309H96.1711Z" fill="#68CEFF"/>
<g style="mix-blend-mode:multiply" opacity="0.5">
<path d="M94.5386 76.2926L89.5533 147.161C89.2795 151.083 86.6598 154.433 82.955 155.664C55.2913 164.896 31.1955 159.674 18.6637 155.418C14.998 154.166 12.4467 150.826 12.1828 146.945L6.23947 62.4203C8.79079 72.4403 10.824 82.5982 12.3099 92.8349C13.5122 101.101 14.3822 109.436 16.523 117.505C18.6735 125.565 22.2023 133.457 28.0381 139.388C33.8641 145.319 42.2414 149.063 50.4526 147.969C56.8064 147.122 62.5542 143.496 66.9824 138.826C71.4105 134.156 74.6657 128.491 77.5884 122.747C85.086 108.037 90.7849 92.4014 94.5386 76.3024V76.2926Z" fill="#68CEFF"/>
</g>
<g style="mix-blend-mode:screen" opacity="0.5">
<path d="M58.2141 60.8833C47.9306 60.9424 37.6764 59.967 27.4614 58.7552C23.9423 58.3414 20.3646 57.8882 16.8749 58.5187C15.1838 58.8241 13.4438 59.435 12.3196 60.7454C11.1466 62.105 10.8045 64.0361 11.0391 65.8194C11.2835 67.6027 12.0459 69.2678 12.8964 70.854C16.347 77.3074 21.4203 83.0711 27.9795 86.2534C33.1505 88.7658 38.9667 89.5639 44.7048 89.8594C49.6706 90.1057 54.7439 89.9777 59.4848 88.4801C65.3304 86.6278 70.3548 82.7755 74.8416 78.5586C79.3284 74.3418 83.3949 69.6816 88.0967 65.711C89.3871 64.6272 90.7458 63.5632 91.6158 62.1149C92.2903 61.0114 93.2971 57.1394 91.0391 57.1394C89.8172 57.1394 88.4095 57.6911 87.2072 57.9374C85.9071 58.1936 84.5972 58.4399 83.2874 58.6665C77.9501 59.5828 72.5738 60.2232 67.1779 60.5779C64.1965 60.7749 61.215 60.8735 58.2238 60.8932L58.2141 60.8833Z" fill="#9CF1FF"/>
</g>
<g style="mix-blend-mode:screen" opacity="0.5">
<path d="M30.3157 60.9523C27.2561 60.6074 24.0694 60.2527 21.1564 61.2577C20.4037 61.5237 19.5728 62.0163 19.5142 62.8144C19.4555 63.642 20.2473 64.2627 20.9609 64.6765C26.6403 67.9968 33.1799 69.652 39.7292 70.0756C46.2786 70.4993 52.8671 69.721 59.2991 68.4106C62.7302 67.7111 66.1906 66.8342 69.2698 65.1199C70.042 64.6863 71.7527 63.6912 70.3549 62.9326C69.2014 62.3119 67.5885 62.5779 66.3568 62.6567C58.6246 63.1395 50.8729 62.8538 43.1603 62.2331C38.869 61.8882 34.5875 61.435 30.3157 60.9424V60.9523Z" fill="#9CF1FF"/>
</g>
<g style="mix-blend-mode:screen" opacity="0.5">
<path d="M75.2424 62.2035C74.8221 62.3809 74.4018 62.5976 74.1085 62.9523C73.8153 63.307 73.6784 63.8292 73.8935 64.2332C74.1672 64.7455 74.8416 64.8637 75.4184 64.8933C76.2493 64.9327 77.0899 64.9327 77.9306 64.8834C79.348 64.7947 80.7654 64.5681 82.0948 64.0755C82.8768 63.7898 84.9296 63.0509 85.1251 62.0853C85.4379 60.4597 81.0978 60.8538 80.2962 60.9523C78.5758 61.169 76.8456 61.5237 75.2424 62.2134V62.2035Z" fill="#9CF1FF"/>
</g>
<path opacity="0.19" d="M50.5992 1C23.2092 1 1 5.93609 1 12.0249C1 12.1333 1 12.2417 1.01955 12.3402L10.1789 151.989L10.7067 159.92C10.7067 159.92 11.2053 164.847 13.5513 166.364C13.6979 166.472 13.8641 166.551 14.0303 166.62C15.5064 167.221 35.3206 169.595 50.609 169.29C65.8974 169.595 85.7214 167.221 87.1877 166.62C87.5885 166.462 87.9404 166.206 88.2532 165.881C90.1007 163.999 90.521 159.91 90.521 159.91L91 152.6L100.179 12.3402C100.198 12.2318 100.198 12.1234 100.198 12.0249C100.208 5.93609 77.999 1 50.5992 1Z" fill="#9CCAFF"/>
<path opacity="0.33" d="M100.12 13.355L91.0977 150.945L90.9902 152.61L90.5112 159.92C90.5112 159.92 90.5112 159.94 90.5112 159.97C90.5112 159.989 90.5112 160.009 90.5112 160.029C90.5112 160.058 90.5112 160.078 90.5112 160.117C90.5112 160.147 90.5112 160.186 90.4917 160.236C90.4917 160.265 90.4917 160.305 90.4721 160.344C90.4721 160.403 90.4526 160.452 90.4428 160.521C90.4428 160.561 90.4233 160.61 90.4233 160.659C90.4233 160.728 90.4037 160.807 90.3842 160.886C90.3842 160.935 90.3646 160.984 90.3646 161.034C90.3451 161.122 90.3353 161.201 90.306 161.3C90.306 161.329 90.2864 161.369 90.2864 161.408C90.2473 161.605 90.1887 161.812 90.1398 162.029C90.1398 162.088 90.1202 162.147 90.1007 162.206C90.0811 162.305 90.042 162.393 90.0127 162.502C90.0127 162.531 89.9931 162.571 89.9834 162.61C89.9834 162.65 89.9638 162.689 89.9541 162.728C89.9247 162.827 89.8954 162.916 89.8563 163.024C89.827 163.103 89.7976 163.182 89.7683 163.27C89.739 163.369 89.6999 163.457 89.6608 163.546C89.6217 163.635 89.5924 163.723 89.5533 163.822C89.5239 163.911 89.4848 163.999 89.4457 164.088L89.2991 164.374C89.26 164.452 89.2307 164.521 89.1916 164.61C89.1036 164.778 89.0059 164.935 88.9081 165.093C88.8885 165.122 88.869 165.152 88.8495 165.182C88.7615 165.31 88.6637 165.438 88.5758 165.546C88.5367 165.595 88.4975 165.645 88.4584 165.684C88.39 165.753 88.3411 165.832 88.2727 165.891V165.871C87.9599 166.187 87.6178 166.462 87.2072 166.62C85.741 167.221 65.9169 169.595 50.6285 169.29C35.3402 169.595 15.5259 167.221 14.0498 166.62C13.5904 166.433 13.1896 166.108 12.8475 165.714C12.8279 165.694 12.7888 165.654 12.7693 165.635C12.6813 165.526 12.6031 165.408 12.5151 165.3C12.4858 165.251 12.4565 165.211 12.4272 165.172C12.349 165.063 12.2805 164.935 12.2023 164.817C12.1828 164.758 12.1437 164.709 12.1144 164.669C12.0557 164.551 11.9873 164.423 11.9286 164.305C11.9091 164.246 11.8798 164.196 11.8504 164.137C11.7918 164.009 11.7429 163.881 11.694 163.753C11.6745 163.694 11.6452 163.645 11.6256 163.585L11.479 163.201C11.4594 163.142 11.4399 163.083 11.4203 163.024C11.3714 162.896 11.3323 162.768 11.303 162.649C11.2835 162.59 11.2639 162.531 11.2444 162.472C11.2248 162.413 11.215 162.354 11.1955 162.295C11.1759 162.226 11.1564 162.157 11.1466 162.108C11.1271 162.058 11.1173 161.999 11.0977 161.95C11.0782 161.832 11.0391 161.714 11.0195 161.605C11.0195 161.556 11 161.507 10.9902 161.457C10.9707 161.349 10.9413 161.241 10.9316 161.142C10.912 161.093 10.912 161.053 10.9022 161.014C10.8827 160.915 10.8729 160.827 10.8534 160.738C10.8534 160.699 10.8338 160.669 10.8338 160.63C10.8143 160.551 10.8045 160.472 10.7947 160.403C10.7947 160.364 10.7947 160.344 10.7752 160.305C10.7752 160.245 10.7556 160.186 10.7556 160.137C10.7556 160.108 10.7556 160.088 10.7556 160.058C10.7556 160.039 10.7556 159.999 10.7556 159.979C10.7556 159.94 10.7556 159.92 10.7556 159.92L10.2278 151.989L10.13 150.521L1.03909 12.7146C1.18572 13.1777 1.40077 13.621 1.69403 14.0151C1.72335 14.0447 1.75268 14.0841 1.79178 14.1235L1.81133 14.1432C2.06549 14.4191 2.32942 14.6752 2.58357 14.9511C2.58357 14.9511 2.58357 14.9511 2.60312 14.9708C2.60312 14.9708 2.62267 14.9708 2.62267 14.9905C2.64222 14.9905 2.75952 15.0693 2.90615 15.1679L12.1828 146.945C12.4565 150.827 15.0078 154.167 18.6637 155.418C31.1955 159.674 55.2913 164.896 82.955 155.664C86.6598 154.433 89.2698 151.083 89.5533 147.161L98.8983 14.3107C99.26 14.1038 99.6119 13.8673 99.9052 13.5521C99.9736 13.4929 100.052 13.424 100.12 13.3649V13.355Z" fill="#A7C0FF"/>
<path opacity="0.33" d="M44.5191 164.955C43.1994 165.832 41.5474 165.95 39.9736 166.019C33.6588 166.275 27.3245 166.068 21.0391 165.408C18.1847 165.103 15.262 164.689 12.7302 163.319C12.1828 163.024 11.6647 162.679 11.1662 162.305C11.1466 162.236 11.1271 162.167 11.1173 162.117C11.0977 162.068 11.088 162.009 11.0684 161.96C11.0489 161.842 11.0098 161.723 10.9902 161.615C10.9902 161.566 10.9707 161.516 10.9609 161.467C10.9413 161.359 10.912 161.25 10.9022 161.152C10.8827 161.103 10.8827 161.063 10.8729 161.024C10.8534 160.925 10.8436 160.837 10.824 160.748C10.824 160.709 10.8045 160.679 10.8045 160.64C10.7849 160.561 10.7752 160.482 10.7654 160.413C10.7654 160.374 10.7654 160.354 10.7458 160.314C10.7458 160.255 10.7263 160.196 10.7263 160.147C10.7263 160.117 10.7263 160.098 10.7263 160.068C10.7263 160.048 10.7263 160.009 10.7263 159.989C10.7263 159.95 10.7263 159.93 10.7263 159.93L10.1984 151.999L10.1007 150.531C10.4428 150.935 10.7947 151.319 11.1759 151.694C14.5582 155.083 18.9179 157.378 23.4047 158.915C29.8172 161.122 36.6109 161.97 43.1799 163.654C43.8543 163.832 44.6852 164.275 44.5288 164.955H44.5191Z" fill="#A7FFFF"/>
<path opacity="0.33" d="M91.0977 150.945L90.9902 152.61L90.5112 159.92C90.5112 159.92 90.5112 159.94 90.5112 159.97C90.5112 159.989 90.5112 160.009 90.5112 160.029C90.5112 160.058 90.5112 160.078 90.5112 160.117C90.5112 160.147 90.5112 160.186 90.4917 160.236C90.4917 160.265 90.4917 160.305 90.4721 160.344C90.4721 160.403 90.4526 160.452 90.4428 160.521C90.4428 160.561 90.4232 160.61 90.4232 160.659C90.4232 160.728 90.4037 160.807 90.3841 160.886C90.3841 160.935 90.3646 160.984 90.3646 161.034C90.345 161.122 90.3353 161.201 90.3059 161.3C90.3059 161.329 90.2864 161.369 90.2864 161.408C90.2473 161.605 90.1886 161.812 90.1398 162.029C90.1398 162.088 90.1202 162.147 90.1007 162.206C90.0811 162.305 90.042 162.393 90.0127 162.502C90.0127 162.531 89.9931 162.571 89.9834 162.61C89.6217 162.866 89.2502 163.103 88.8592 163.31C86.3275 164.689 83.4047 165.103 80.5503 165.398C74.2649 166.049 67.9306 166.265 61.606 166.009C60.0322 165.95 58.3802 165.822 57.0606 164.945C56.8944 164.265 57.7351 163.822 58.4096 163.645C64.9785 161.96 71.7722 161.113 78.1847 158.906C82.6618 157.359 87.0215 155.073 90.4135 151.684C90.6481 151.447 90.8925 151.201 91.1173 150.945H91.0977Z" fill="#A7FFFF"/>
<path d="M100.208 12.0249C100.208 12.1333 100.208 12.2417 100.189 12.3402C99.436 18.2812 77.5298 23.0597 50.609 23.0597C23.6882 23.0597 1.77224 18.2911 1.01955 12.3402C1 12.2318 1 12.1234 1 12.0249C1 5.93609 23.2092 1 50.5992 1C77.9892 1 100.198 5.93609 100.198 12.0249H100.208Z" stroke="white" stroke-width="0.81" stroke-miterlimit="10"/>
<path d="M50.5992 1C23.2092 1 1 5.93609 1 12.0249C1 12.1333 1 12.2417 1.01955 12.3402L10.1789 151.989L10.7067 159.92C10.7067 159.92 11.2053 164.847 13.5513 166.364C13.6979 166.472 13.8641 166.551 14.0303 166.62C15.5064 167.221 35.3206 169.595 50.609 169.29C65.8974 169.595 85.7214 167.221 87.1877 166.62C87.5885 166.462 87.9404 166.206 88.2532 165.881C90.1007 163.999 90.521 159.91 90.521 159.91L91 152.6L100.179 12.3402C100.198 12.2318 100.198 12.1234 100.198 12.0249C100.208 5.93609 77.999 1 50.5992 1Z" stroke="white" stroke-width="0.81" stroke-miterlimit="10"/>
<path opacity="0.19" d="M95.4379 16.7443L87.999 151.772C86.826 153.566 85.0665 154.955 82.955 155.654C79.2893 156.876 75.6725 157.851 72.1437 158.6L78.4487 21.1483C92.7595 20.6852 95.4379 16.7344 95.4379 16.7344V16.7443Z" fill="#9CCAFF"/>
<path opacity="0.19" d="M28.957 158.285C26.2493 157.674 23.7859 157.014 21.5865 156.344C20.5601 156.029 19.5826 155.723 18.6735 155.408C18.2727 155.27 17.9013 155.112 17.5298 154.925L7.55914 17.5128L12.7302 18.7837L21.7136 21.0005L28.957 158.295V158.285Z" fill="#9CCAFF"/>
<path opacity="0.19" d="M21.5865 156.344C20.5601 156.029 19.5826 155.723 18.6735 155.408C18.2727 155.27 17.9013 155.112 17.5298 154.925L7.55914 17.5128L12.7302 18.7837C13.2092 23.976 19.4458 121.712 21.5865 156.344Z" fill="#9CCAFF"/>
</svg>
